<svg width="761" height="735" viewBox="0 0 761 735" fill="none" xmlns="http://www.w3.org/2000/svg">
<path d="M648.718 352.036C500.315 266.722 259.703 266.722 111.299 352.036C-37.1047 437.351 -37.0881 575.695 111.299 661.01C259.686 746.324 500.298 746.341 648.702 661.01C797.105 575.679 797.105 437.367 648.718 352.036Z" fill="#F8F8F8"/>
<path d="M723.967 114.395L701.109 101.203C701.237 100.275 701.301 99.3381 701.302 98.4006V91.7804C700.953 85.3675 699.097 79.1272 695.885 73.5652C692.674 68.0032 688.197 63.276 682.818 59.7669C681.215 58.6981 679.414 57.9597 677.523 57.5946C675.631 57.2295 673.685 57.2452 671.799 57.6407C670.132 40.8728 658.486 21.9305 644.375 13.7881C629.104 4.9693 616.708 12.121 616.708 29.7345V39.6648C616.799 44.4867 617.613 49.2676 619.125 53.8474L600.133 42.8782C594.479 39.5923 589.888 42.25 589.888 48.7977C590.059 52.3676 591.069 55.847 592.836 58.9535C594.604 62.06 597.079 64.706 600.06 66.677L723.967 138.194C729.621 141.48 734.212 138.822 734.212 132.275C734.033 128.698 733.012 125.215 731.231 122.108C729.451 119.001 726.962 116.358 723.967 114.395Z" fill="#EBEBEB"/>
<path d="M585.346 138.895L570.848 130.487C570.887 129.891 570.887 129.294 570.848 128.699V124.495C570.628 120.407 569.447 116.428 567.403 112.881C565.359 109.334 562.508 106.319 559.081 104.079C558.056 103.4 556.907 102.931 555.701 102.699C554.494 102.466 553.253 102.475 552.049 102.726C550.986 92.0705 543.568 79.9899 534.58 74.7952C524.915 69.1898 516.965 73.7321 516.965 84.9671V91.2732C517.001 94.344 517.506 97.3914 518.463 100.309L506.382 93.3269C502.782 91.249 499.858 92.9403 499.858 97.096C499.985 99.3596 500.642 101.562 501.775 103.526C502.908 105.489 504.486 107.16 506.382 108.403L585.346 153.996C588.946 156.073 591.87 154.382 591.87 150.202C591.742 147.939 591.086 145.737 589.953 143.773C588.82 141.809 587.242 140.138 585.346 138.895Z" fill="#EBEBEB"/>
<path d="M588.399 437.5C583.051 412.98 574.474 388.941 579.789 351.408C584.624 317.401 602.49 287.02 627.938 283.527C645.092 281.242 660.076 300.364 643.287 324.917C640.489 329.007 604.129 364.653 610.172 413.775L606.778 446.457L588.399 437.5Z" fill="#47B4EB"/>
<g opacity="0.2">
<path opacity="0.2" d="M588.399 437.5C583.051 412.98 574.474 388.941 579.789 351.408C584.624 317.401 602.49 287.02 627.938 283.527C645.092 281.242 660.076 300.364 643.287 324.917C640.489 329.007 604.129 364.653 610.172 413.775L606.778 446.457L588.399 437.5Z" fill="black"/>
</g>
<path d="M597.307 433.858C597.525 433.757 597.705 433.587 597.818 433.375C597.932 433.163 597.973 432.92 597.936 432.682C588.002 369.768 600.668 322.798 631.051 296.921C631.274 296.731 631.413 296.461 631.438 296.17C631.463 295.878 631.371 295.589 631.184 295.364C631.088 295.241 630.967 295.139 630.83 295.065C630.692 294.991 630.541 294.946 630.385 294.934C630.229 294.921 630.073 294.941 629.925 294.993C629.778 295.044 629.642 295.126 629.528 295.232C598.764 321.391 585.667 369.272 595.668 432.964C595.688 433.108 595.737 433.247 595.812 433.372C595.886 433.497 595.985 433.606 596.102 433.692C596.219 433.779 596.353 433.841 596.494 433.875C596.636 433.909 596.783 433.914 596.926 433.891L597.307 433.858Z" fill="white"/>
<path d="M617.077 456.225C616.961 446.689 622.226 425.894 634.694 407.765C650.423 384.884 674.961 377.401 677.461 365.414C680.475 351.01 665.391 342.782 645.87 349.768C622.375 358.179 594.641 392.003 604.261 449.023L617.077 456.225Z" fill="#455A64"/>
<path d="M610.669 446.193C610.881 446.109 611.064 445.967 611.196 445.782C611.328 445.596 611.404 445.377 611.414 445.15C614.063 394.537 644.115 368.03 659.646 361.093C659.933 360.963 660.157 360.725 660.268 360.43C660.38 360.135 660.37 359.808 660.242 359.52C660.181 359.375 660.091 359.244 659.978 359.135C659.865 359.025 659.73 358.94 659.583 358.884C659.436 358.829 659.279 358.803 659.122 358.81C658.965 358.817 658.81 358.856 658.669 358.924C641.499 366.59 611.745 393.361 608.997 445.017C608.99 445.174 609.014 445.33 609.068 445.477C609.122 445.624 609.204 445.759 609.31 445.875C609.417 445.99 609.544 446.083 609.687 446.149C609.829 446.215 609.983 446.252 610.139 446.259C610.319 446.283 610.501 446.26 610.669 446.193Z" fill="white"/>
<path d="M374.544 604.04L352.672 616.722C351.273 617.419 349.731 617.782 348.169 617.782C346.606 617.782 345.064 617.419 343.665 616.722L326.627 606.788L274.107 637.186C272.71 637.898 271.164 638.269 269.596 638.269C268.027 638.269 266.481 637.898 265.084 637.186L247.4 626.97C244.486 625.315 242.831 623.51 242.433 621.573L229.403 556.424C229.332 556.042 229.299 555.654 229.303 555.265C229.303 556.523 229.303 572.782 229.303 573.576C229.307 573.91 229.34 574.242 229.403 574.57L242.433 639.719C242.88 641.656 244.536 643.46 247.4 645.133L265.084 655.348C266.486 656.045 268.03 656.408 269.596 656.408C271.161 656.408 272.706 656.045 274.107 655.348L326.627 625L343.648 634.802C345.044 635.511 346.587 635.881 348.152 635.881C349.717 635.881 351.26 635.511 352.656 634.802L374.528 622.186C375.045 621.961 375.491 621.598 375.815 621.136C376.139 620.675 376.33 620.133 376.366 619.57V601.358C376.336 601.929 376.151 602.48 375.83 602.953C375.508 603.426 375.064 603.802 374.544 604.04Z" fill="#47B4EB"/>
<path d="M373.7 596.258V578.046C373.663 578.609 373.472 579.15 373.148 579.611C372.823 580.073 372.379 580.436 371.863 580.662L357.507 588.94L373.005 597.881C373.429 597.444 373.677 596.866 373.7 596.258Z" fill="#47B4EB"/>
<path d="M274.124 593.692L285.002 600L300.749 590.928L270.018 573.179L274.108 593.692H274.124Z" fill="#47B4EB"/>
<path opacity="0.35" d="M274.124 593.692L285.002 600L300.749 590.928L270.018 573.179L274.108 593.692H274.124Z" fill="black"/>
<path opacity="0.2" d="M373.7 596.258V578.046C373.663 578.609 373.472 579.15 373.148 579.611C372.823 580.073 372.379 580.436 371.863 580.662L357.507 588.94L373.005 597.881C373.429 597.444 373.677 596.866 373.7 596.258Z" fill="black"/>
<path opacity="0.2" d="M374.544 604.04L352.672 616.722C351.286 617.471 349.726 617.837 348.152 617.782V635.994C349.728 636.051 351.291 635.679 352.672 634.917L374.544 622.301C375.062 622.077 375.507 621.714 375.832 621.252C376.156 620.791 376.346 620.249 376.382 619.686V601.474C376.331 602.026 376.133 602.555 375.811 603.005C375.488 603.456 375.051 603.813 374.544 604.04Z" fill="black"/>
<path opacity="0.25" d="M242.317 621.573L229.287 556.424C229.216 556.042 229.183 555.654 229.187 555.265C229.187 556.523 229.187 572.782 229.187 573.576C229.191 573.91 229.224 574.242 229.287 574.57L242.317 639.719C242.395 640.106 242.529 640.48 242.715 640.828V622.616C242.536 622.288 242.402 621.937 242.317 621.573Z" fill="black"/>
<path opacity="0.35" d="M269.521 638.245C267.952 638.283 266.4 637.912 265.018 637.169L247.334 626.954C245.396 626.017 243.786 624.516 242.715 622.649V640.861C243.791 642.725 245.4 644.224 247.334 645.166L265.018 655.381C266.402 656.118 267.954 656.483 269.521 656.441C269.692 656.457 269.864 656.457 270.035 656.441V638.245C269.864 638.27 269.691 638.27 269.521 638.245Z" fill="black"/>
<path opacity="0.2" d="M274.107 637.185C272.882 637.866 271.502 638.219 270.101 638.212V656.424C271.5 656.416 272.876 656.063 274.107 655.397L326.627 625V606.788L274.107 637.185Z" fill="black"/>
<path opacity="0.35" d="M343.648 616.722L326.627 606.788V625L343.648 634.801C345.019 635.561 346.57 635.933 348.135 635.877V617.666C346.583 617.754 345.034 617.428 343.648 616.722Z" fill="black"/>
<path d="M352.673 616.722C351.271 617.419 349.726 617.782 348.161 617.782C346.595 617.782 345.051 617.419 343.649 616.722L326.628 606.788L274.108 637.185C272.706 637.882 271.162 638.245 269.596 638.245C268.03 638.245 266.486 637.882 265.084 637.185L247.401 626.97C244.509 625.303 242.853 623.504 242.434 621.573L229.42 556.424C229.154 555.418 229.272 554.35 229.751 553.427C230.51 552.453 231.477 551.661 232.582 551.109L257.799 536.556C259.198 535.859 260.739 535.497 262.302 535.497C263.865 535.497 265.407 535.859 266.806 536.556L330.916 573.576L345.271 565.298C346.673 564.601 348.218 564.238 349.783 564.238C351.349 564.238 352.893 564.601 354.295 565.298L371.796 575.497C372.336 575.687 372.803 576.04 373.134 576.507C373.465 576.974 373.642 577.532 373.642 578.104C373.642 578.676 373.465 579.235 373.134 579.702C372.803 580.169 372.336 580.522 371.796 580.712L357.441 588.99L374.479 598.824C375.013 599.018 375.474 599.371 375.8 599.836C376.126 600.302 376.301 600.856 376.301 601.424C376.301 601.992 376.126 602.546 375.8 603.011C375.474 603.476 375.013 603.829 374.479 604.023L352.673 616.722ZM300.749 590.993L270.035 573.262L276.376 605.066L300.749 590.993Z" fill="#47B4EB"/>
<path d="M492.069 523.428C491.789 528.314 490.001 532.993 486.952 536.822C483.387 541.689 477.432 546.54 469.087 551.375C461.22 555.993 452.734 559.467 443.887 561.689C435.764 563.705 427.419 564.689 419.051 564.62C411.178 564.556 403.347 563.471 395.754 561.391C388.611 559.447 381.691 556.761 375.107 553.378C370.339 550.883 365.333 548.124 360.09 545.1C354.847 542.075 349.951 539.117 345.403 536.226C340.197 532.99 335.527 528.963 331.561 524.288C328.233 520.567 326.261 515.829 325.965 510.845C326.064 513.726 325.849 525.828 325.965 529.057C326.257 534.047 328.23 538.791 331.561 542.517C335.535 547.183 340.204 551.209 345.403 554.454C349.973 557.357 354.869 560.309 360.09 563.312C365.311 566.314 370.317 569.073 375.107 571.59C381.716 574.965 388.658 577.645 395.821 579.586C403.415 581.658 411.245 582.743 419.117 582.815C427.486 582.879 435.831 581.889 443.953 579.868C452.801 577.645 461.286 574.172 469.153 569.553C477.52 564.73 483.475 559.879 487.019 555C490.296 550.951 492.095 545.905 492.118 540.696C491.953 537.997 492.135 527.55 492.069 523.428Z" fill="#47B4EB"/>
<path opacity="0.35" d="M423.554 564.537C422.064 564.537 420.574 564.653 419.1 564.537C411.228 564.474 403.397 563.388 395.804 561.308C388.647 559.394 381.711 556.736 375.107 553.378C370.339 550.883 365.333 548.124 360.09 545.1C354.847 542.075 349.951 539.117 345.403 536.226C340.197 532.99 335.527 528.963 331.561 524.288C328.233 520.567 326.261 515.829 325.965 510.845C326.064 513.726 325.849 525.828 325.965 529.057C326.257 534.047 328.23 538.791 331.561 542.517C335.535 547.183 340.204 551.209 345.403 554.454C349.973 557.357 354.869 560.309 360.09 563.312C365.311 566.314 370.317 569.073 375.107 571.59C381.716 574.965 388.658 577.645 395.821 579.586C403.415 581.658 411.245 582.743 419.117 582.815C420.59 582.815 422.081 582.815 423.571 582.716L423.554 564.537Z" fill="black"/>
<path opacity="0.2" d="M492.069 523.428C491.789 528.314 490.001 532.993 486.952 536.822C483.387 541.689 477.432 546.54 469.087 551.375C461.22 555.994 452.735 559.467 443.887 561.689C437.222 563.318 430.41 564.272 423.554 564.537V582.749C430.411 582.5 437.225 581.546 443.887 579.901C452.735 577.679 461.22 574.206 469.087 569.587C477.454 564.763 483.409 559.912 486.952 555.034C490.23 550.984 492.029 545.939 492.052 540.729C491.953 537.997 492.135 527.55 492.069 523.428Z" fill="black"/>
<path d="M370.604 513.775C371.624 514.822 372.732 515.781 373.916 516.639C374.479 516.275 375.025 515.911 375.654 515.547C378.721 513.741 382.042 512.407 385.506 511.59C388.601 510.899 391.78 510.659 394.944 510.878C398.016 511.107 401.047 511.719 403.967 512.699C407.015 513.752 409.995 514.991 412.892 516.407C422.572 521.507 431.922 526.91 440.94 532.616C442.115 533.345 443.208 534.106 444.251 534.835C446.245 533.667 447.98 532.107 449.351 530.249C450.504 528.664 450.985 526.689 450.692 524.752C450.225 522.729 449.15 520.898 447.613 519.503C445.58 517.627 443.361 515.963 440.99 514.537C431.96 508.808 422.611 503.411 412.941 498.345C410.048 496.915 407.067 495.671 404.017 494.619C401.094 493.647 398.064 493.035 394.993 492.798C391.829 492.586 388.65 492.831 385.555 493.527C382.09 494.331 378.768 495.659 375.704 497.467C373.034 498.84 370.699 500.785 368.866 503.162C368.298 503.935 367.894 504.814 367.677 505.748C367.461 506.682 367.437 507.65 367.607 508.593C368.135 510.553 369.169 512.34 370.604 513.775Z" fill="#47B4EB"/>
<path opacity="0.35" d="M370.604 513.775C371.624 514.822 372.732 515.781 373.916 516.639C374.479 516.275 375.025 515.911 375.654 515.547C378.721 513.741 382.042 512.407 385.506 511.59C388.601 510.899 391.78 510.659 394.944 510.878C398.016 511.107 401.047 511.719 403.967 512.699C407.015 513.752 409.995 514.991 412.892 516.407C422.572 521.507 431.922 526.91 440.94 532.616C442.115 533.345 443.208 534.106 444.251 534.835C446.245 533.667 447.98 532.107 449.351 530.249C450.504 528.664 450.985 526.689 450.692 524.752C450.225 522.729 449.15 520.898 447.613 519.503C445.58 517.627 443.361 515.963 440.99 514.537C431.96 508.808 422.611 503.411 412.941 498.345C410.048 496.915 407.067 495.671 404.017 494.619C401.094 493.647 398.064 493.035 394.993 492.798C391.829 492.586 388.65 492.831 385.555 493.527C382.09 494.331 378.768 495.659 375.704 497.467C373.034 498.84 370.699 500.785 368.866 503.162C368.298 503.935 367.894 504.814 367.677 505.748C367.461 506.682 367.437 507.65 367.607 508.593C368.135 510.553 369.169 512.34 370.604 513.775Z" fill="black"/>
<path d="M348.897 481.97C356.767 477.344 365.259 473.871 374.114 471.656C382.237 469.64 390.581 468.655 398.95 468.725C406.823 468.79 414.653 469.875 422.246 471.954C429.405 473.892 436.341 476.572 442.943 479.95C447.943 482.588 453.065 485.414 458.308 488.427C463.541 491.457 468.243 494.338 472.664 497.103C477.862 500.362 482.535 504.392 486.522 509.056C489.842 512.782 491.808 517.519 492.102 522.5C492.093 527.709 490.299 532.758 487.019 536.805C483.465 541.683 477.509 546.54 469.153 551.374C461.284 555.995 452.791 559.463 443.937 561.672C435.816 563.702 427.471 564.692 419.101 564.619C411.234 564.548 403.41 563.463 395.821 561.391C388.656 559.455 381.714 556.775 375.108 553.394C370.322 550.877 365.322 548.129 360.09 545.116C354.858 542.103 349.957 539.139 345.387 536.258C340.19 533.003 335.522 528.972 331.545 524.305C328.215 520.584 326.242 515.846 325.949 510.861C325.966 505.648 327.759 500.597 331.032 496.54C334.597 491.672 340.552 486.816 348.897 481.97ZM440.89 514.454C431.861 508.736 422.511 503.339 412.842 498.262C409.952 496.831 406.97 495.592 403.917 494.553C401.024 493.574 398.021 492.957 394.976 492.715C391.812 492.502 388.633 492.748 385.539 493.444C382.07 494.247 378.747 495.581 375.687 497.401C373.011 498.758 370.674 500.698 368.849 503.079C368.277 503.853 367.871 504.735 367.654 505.672C367.438 506.609 367.416 507.581 367.591 508.526C368.12 510.528 369.191 512.344 370.687 513.775C372.641 515.737 374.826 517.455 377.194 518.891C386.262 524.761 395.623 530.166 405.242 535.083C408.056 536.582 410.985 537.855 414.001 538.891C416.944 539.885 420.006 540.481 423.107 540.662C426.301 540.857 429.506 540.601 432.628 539.901C436.096 539.098 439.419 537.763 442.48 535.944C445.152 534.581 447.488 532.641 449.318 530.265C449.892 529.482 450.306 528.593 450.536 527.65C450.766 526.707 450.808 525.728 450.659 524.768C450.189 522.743 449.108 520.911 447.563 519.52C445.531 517.592 443.293 515.893 440.89 514.454Z" fill="#47B4EB"/>
<path d="M618.402 463.246L596.529 475.862C595.134 476.571 593.591 476.941 592.026 476.941C590.46 476.941 588.917 476.571 587.522 475.862L570.484 466.06L517.882 496.441C516.499 497.182 514.946 497.547 513.378 497.501C511.805 497.545 510.247 497.18 508.858 496.441L491.175 486.209C488.283 484.554 486.627 482.754 486.207 480.812L473.177 415.663C473.147 415.277 473.147 414.89 473.177 414.504C473.177 415.762 473.177 432.021 473.177 432.815C473.154 433.151 473.154 433.489 473.177 433.825L486.207 498.974C486.655 500.911 488.327 502.699 491.175 504.371L508.858 514.587C510.246 515.332 511.804 515.703 513.378 515.663C514.948 515.704 516.501 515.333 517.882 514.587L570.484 484.272L587.505 494.107C588.904 494.803 590.446 495.166 592.009 495.166C593.572 495.166 595.114 494.803 596.513 494.107L618.385 481.491C618.901 481.265 619.346 480.901 619.67 480.44C619.994 479.979 620.185 479.437 620.223 478.875V460.663C620.181 461.218 619.99 461.751 619.669 462.206C619.348 462.66 618.91 463.02 618.402 463.246Z" fill="#47B4EB"/>
<path d="M617.574 455.464V437.252C617.533 437.812 617.341 438.349 617.017 438.807C616.693 439.266 616.25 439.627 615.736 439.851L601.364 448.129L616.879 457.07C617.289 456.631 617.535 456.063 617.574 455.464Z" fill="#47B4EB"/>
<path d="M517.998 452.898L528.876 459.222L544.606 450.133L513.892 432.384L517.965 452.898H517.998Z" fill="#47B4EB"/>
<path opacity="0.35" d="M517.998 452.898L528.876 459.222L544.606 450.133L513.892 432.384L517.965 452.898H517.998Z" fill="black"/>
<path opacity="0.2" d="M617.574 455.464V437.252C617.533 437.812 617.341 438.349 617.017 438.807C616.693 439.266 616.25 439.627 615.736 439.851L601.364 448.129L616.879 457.07C617.289 456.631 617.535 456.063 617.574 455.464Z" fill="black"/>
<path opacity="0.2" d="M618.401 463.245L596.529 475.861C595.153 476.621 593.596 476.993 592.025 476.937V495.149C593.594 495.202 595.148 494.836 596.529 494.09L618.401 481.474C618.918 481.248 619.362 480.884 619.686 480.423C620.01 479.962 620.202 479.42 620.239 478.858V460.646C620.199 461.206 620.006 461.743 619.682 462.202C619.358 462.66 618.915 463.021 618.401 463.245Z" fill="black"/>
<path opacity="0.25" d="M486.174 480.779L473.144 415.63C473.114 415.244 473.114 414.856 473.144 414.471C473.144 415.729 473.144 431.987 473.144 432.782C473.121 433.118 473.121 433.456 473.144 433.792L486.174 498.941C486.261 499.323 486.4 499.69 486.588 500.034V481.822C486.405 481.493 486.266 481.143 486.174 480.779Z" fill="black"/>
<path opacity="0.35" d="M513.395 497.517C511.822 497.562 510.264 497.197 508.875 496.457L491.191 486.226C489.256 485.299 487.65 483.802 486.588 481.938V500.149C487.648 502.02 489.254 503.522 491.191 504.454L508.875 514.669C510.262 515.414 511.82 515.785 513.395 515.745C513.559 515.77 513.727 515.77 513.892 515.745V497.517C513.726 497.533 513.56 497.533 513.395 497.517Z" fill="black"/>
<path opacity="0.2" d="M517.898 496.407C516.668 497.075 515.292 497.428 513.892 497.434V515.646C515.293 515.655 516.674 515.302 517.898 514.619L570.485 484.271V466.06L517.898 496.407Z" fill="black"/>
<path opacity="0.35" d="M587.522 475.861L570.485 466.06V484.272L587.506 494.106C588.886 494.854 590.441 495.22 592.009 495.166V476.954C590.442 477.003 588.891 476.625 587.522 475.861Z" fill="black"/>
<path d="M596.529 475.861C595.13 476.558 593.589 476.921 592.026 476.921C590.463 476.921 588.921 476.558 587.522 475.861L570.485 466.06L517.898 496.424C516.499 497.121 514.958 497.484 513.395 497.484C511.832 497.484 510.29 497.121 508.891 496.424L491.191 486.209C488.294 484.553 486.621 482.749 486.224 480.812L473.21 415.663C472.95 414.662 473.068 413.601 473.541 412.682C474.297 411.705 475.265 410.912 476.372 410.365L501.589 395.812C502.988 395.115 504.53 394.752 506.093 394.752C507.656 394.752 509.198 395.115 510.597 395.812L574.707 432.815L589.062 424.537C590.459 423.824 592.005 423.453 593.574 423.453C595.142 423.453 596.688 423.824 598.086 424.537L615.786 434.752C616.32 434.946 616.781 435.299 617.107 435.764C617.433 436.229 617.608 436.783 617.608 437.351C617.608 437.919 617.433 438.473 617.107 438.939C616.781 439.404 616.32 439.757 615.786 439.951L601.43 448.229L618.451 458.047C618.991 458.237 619.458 458.59 619.789 459.057C620.12 459.524 620.297 460.082 620.297 460.654C620.297 461.226 620.12 461.785 619.789 462.252C619.458 462.719 618.991 463.072 618.451 463.262L596.529 475.861ZM544.605 450.133L513.891 432.401L520.233 464.206L544.605 450.133Z" fill="#47B4EB"/>
<path d="M483.36 616.987C483.782 616.761 484.256 616.653 484.734 616.672C485.212 616.654 485.686 616.763 486.108 616.987L491.489 620.116C491.655 620.17 491.799 620.276 491.901 620.417C492.004 620.558 492.059 620.728 492.059 620.902C492.059 621.077 492.004 621.247 491.901 621.388C491.799 621.529 491.655 621.634 491.489 621.689L467.382 635.613C466.961 635.843 466.487 635.957 466.008 635.944C465.528 635.958 465.054 635.844 464.633 635.613L431.767 616.722C431.576 616.684 431.404 616.58 431.28 616.429C431.156 616.278 431.089 616.089 431.089 615.894C431.089 615.699 431.156 615.51 431.28 615.359C431.404 615.208 431.576 615.105 431.767 615.066L455.477 601.391C455.897 601.16 456.372 601.045 456.851 601.06C457.33 601.049 457.804 601.163 458.226 601.391L463.607 604.503C463.772 604.558 463.917 604.663 464.019 604.804C464.121 604.946 464.176 605.116 464.176 605.29C464.176 605.464 464.121 605.634 464.019 605.775C463.917 605.917 463.772 606.022 463.607 606.076L447.96 615.066L453.457 618.229L468.011 609.835C468.433 609.609 468.907 609.5 469.385 609.52C469.863 609.504 470.336 609.613 470.759 609.835L476.141 612.947C476.332 612.986 476.504 613.089 476.628 613.24C476.751 613.391 476.819 613.58 476.819 613.775C476.819 613.97 476.751 614.159 476.628 614.31C476.504 614.461 476.332 614.564 476.141 614.603L461.587 622.997L467.299 626.308L483.36 616.987Z" fill="#455A64"/>
<path d="M491.39 591.209C491.812 590.981 492.285 590.867 492.765 590.878C493.244 590.863 493.719 590.978 494.139 591.209L499.288 594.172C499.479 594.211 499.651 594.314 499.775 594.465C499.899 594.616 499.966 594.805 499.966 595C499.966 595.195 499.899 595.384 499.775 595.535C499.651 595.686 499.479 595.79 499.288 595.828L494.652 598.51C491.539 600.32 491.539 602.125 494.652 603.924L507.169 611.143C507.361 611.181 507.533 611.284 507.656 611.435C507.78 611.586 507.847 611.775 507.847 611.97C507.847 612.165 507.78 612.355 507.656 612.505C507.533 612.656 507.361 612.76 507.169 612.798L500.762 616.49C500.341 616.72 499.867 616.834 499.387 616.821C498.908 616.836 498.433 616.722 498.013 616.49L474.303 602.815C474.112 602.776 473.94 602.673 473.816 602.522C473.693 602.371 473.625 602.182 473.625 601.987C473.625 601.792 473.693 601.603 473.816 601.452C473.94 601.301 474.112 601.198 474.303 601.159L480.197 597.749C480.618 597.519 481.092 597.405 481.572 597.417C482.051 597.403 482.526 597.517 482.946 597.749L484.122 598.427C484.188 597.451 484.533 596.515 485.115 595.729C485.985 594.612 487.087 593.697 488.344 593.047L491.39 591.209Z" fill="#455A64"/>
<path d="M516.027 576.987C516.448 576.756 516.922 576.642 517.402 576.656C517.881 576.643 518.355 576.757 518.776 576.987L523.909 579.951C524.1 579.989 524.272 580.093 524.396 580.244C524.519 580.394 524.587 580.584 524.587 580.779C524.587 580.974 524.519 581.163 524.396 581.314C524.272 581.464 524.1 581.568 523.909 581.606L519.273 584.272C516.16 586.071 516.16 587.876 519.273 589.686L531.79 596.904C531.981 596.943 532.153 597.046 532.277 597.197C532.4 597.348 532.468 597.537 532.468 597.732C532.468 597.927 532.4 598.116 532.277 598.267C532.153 598.418 531.981 598.522 531.79 598.56L525.382 602.269C524.96 602.494 524.486 602.603 524.008 602.583C523.53 602.599 523.057 602.49 522.634 602.269L498.924 588.577C498.732 588.538 498.56 588.435 498.437 588.284C498.313 588.133 498.246 587.944 498.246 587.749C498.246 587.554 498.313 587.365 498.437 587.214C498.56 587.063 498.732 586.959 498.924 586.921L504.835 583.51C505.256 583.285 505.731 583.176 506.209 583.196C506.686 583.18 507.16 583.289 507.583 583.51L508.742 584.189C508.809 583.218 509.154 582.287 509.736 581.507C510.609 580.389 511.709 579.47 512.964 578.808L516.027 576.987Z" fill="#455A64"/>
<path d="M559.788 564.769C560.318 565.034 560.997 565.398 561.792 565.861C562.587 566.325 563.232 566.706 563.696 567.02C565.091 567.84 566.276 568.974 567.156 570.332C567.88 571.451 568.212 572.778 568.1 574.106C567.914 575.567 567.297 576.938 566.329 578.047C564.996 579.58 563.398 580.858 561.61 581.822C559.559 583.011 557.36 583.924 555.07 584.537C552.849 585.143 550.565 585.487 548.264 585.563C546.071 585.635 543.876 585.452 541.724 585.017C539.741 584.629 537.823 583.96 536.029 583.03C535.482 582.749 534.803 582.385 534.009 581.921C533.214 581.457 532.585 581.077 532.105 580.762C530.686 579.955 529.483 578.819 528.594 577.451C527.866 576.328 527.544 574.99 527.684 573.659C527.884 572.198 528.499 570.825 529.455 569.702C530.765 568.156 532.355 566.869 534.141 565.911C536.215 564.709 538.443 563.796 540.764 563.196C543.011 562.607 545.315 562.263 547.635 562.169C549.829 562.097 552.024 562.28 554.175 562.716C556.133 563.136 558.022 563.827 559.788 564.769ZM544.887 577.567C546.26 578.259 547.788 578.584 549.324 578.51C550.863 578.46 552.365 578.028 553.695 577.252C555.053 576.468 555.782 575.624 555.881 574.719C555.98 573.825 555.45 572.964 554.225 572.169C553.696 571.782 553.143 571.428 552.569 571.11C551.94 570.745 551.328 570.431 550.748 570.166C549.367 569.489 547.839 569.165 546.302 569.222C544.765 569.28 543.266 569.718 541.94 570.497C540.582 571.275 539.853 572.153 539.754 573.014C539.655 573.875 540.201 574.769 541.41 575.58C542.492 576.359 543.652 577.025 544.87 577.567H544.887Z" fill="#455A64"/>
<path d="M573.018 544.09C573.438 543.858 573.913 543.744 574.392 543.759C574.872 543.746 575.346 543.86 575.767 544.09L580.9 547.053C581.091 547.092 581.263 547.195 581.386 547.346C581.51 547.497 581.578 547.686 581.578 547.881C581.578 548.076 581.51 548.265 581.386 548.416C581.263 548.567 581.091 548.67 580.9 548.709L576.263 551.374C573.151 553.174 573.151 554.978 576.263 556.788L588.781 564.007C588.972 564.045 589.144 564.149 589.268 564.3C589.391 564.451 589.459 564.64 589.459 564.835C589.459 565.03 589.391 565.219 589.268 565.37C589.144 565.521 588.972 565.624 588.781 565.663L582.373 569.355C581.953 569.586 581.478 569.7 580.999 569.686C580.52 569.696 580.046 569.582 579.625 569.355L555.914 555.679C555.723 555.641 555.551 555.537 555.427 555.386C555.304 555.235 555.236 555.046 555.236 554.851C555.236 554.656 555.304 554.467 555.427 554.316C555.551 554.165 555.723 554.062 555.914 554.024L561.825 550.613C562.246 550.382 562.72 550.267 563.2 550.282C563.679 550.271 564.152 550.385 564.574 550.613L565.733 551.292C565.799 550.316 566.144 549.379 566.726 548.593C567.597 547.477 568.698 546.562 569.955 545.911L573.018 544.09Z" fill="#455A64"/>
<path d="M222.101 393.808C215.113 393.527 212.034 394.222 213.11 401.606C214.186 408.99 214.517 414.686 214.517 414.686C214.517 414.686 226.952 415.05 232.73 411.821C238.509 408.593 232.598 394.222 222.101 393.808Z" fill="#47B4EB"/>
<path opacity="0.5" d="M222.101 393.808C215.113 393.527 212.034 394.222 213.11 401.606C214.186 408.99 214.517 414.686 214.517 414.686C214.517 414.686 226.952 415.05 232.73 411.821C238.509 408.593 232.598 394.222 222.101 393.808Z" fill="black"/>
<path d="M223.21 425.53C222.755 425.527 222.3 425.482 221.853 425.397C220.02 425.033 218.407 423.957 217.367 422.405C216.327 420.853 215.945 418.952 216.306 417.119C218.111 407.947 219.899 400.861 221.488 394.619C223.889 385.933 225.633 377.078 226.704 368.129C228.023 354.237 225.028 340.275 218.127 328.146C217.656 327.352 217.347 326.474 217.215 325.56C217.084 324.647 217.134 323.717 217.362 322.823C217.591 321.929 217.993 321.089 218.546 320.35C219.099 319.611 219.792 318.989 220.586 318.518C221.38 318.048 222.258 317.738 223.172 317.607C224.085 317.475 225.015 317.525 225.909 317.754C226.803 317.982 227.644 318.384 228.382 318.937C229.121 319.49 229.743 320.183 230.214 320.977C238.688 335.716 242.346 352.733 240.678 369.652C239.551 379.24 237.691 388.727 235.115 398.03C233.592 404.106 231.804 410.993 230.148 419.801C229.842 421.416 228.981 422.873 227.714 423.919C226.447 424.965 224.854 425.535 223.21 425.53Z" fill="#455A64"/>
<path d="M206.388 435.033C206.06 436.388 206.06 437.801 206.388 439.156C207.365 440.977 212.779 443.212 215.627 444.387C219.563 445.903 222.773 448.864 224.601 452.666C227.78 458.477 233.575 462.401 240.049 464.868C248.738 467.921 258.15 468.262 267.037 465.844C278.114 463.08 278.627 456.407 278.627 456.407C278.627 456.407 278.793 450.149 275.945 449.354C273.097 448.56 206.388 435.033 206.388 435.033Z" fill="#455A64"/>
<path d="M210.858 411.788C210.543 413.759 210.095 415.706 209.517 417.616C207.861 422.864 205.295 428.278 206.388 435.033C208.209 438.345 212.017 439.504 214.865 440.762C218.69 442.417 221.488 443.593 224.187 446.904C229.154 452.848 233.807 460.365 248.675 462.302C263.544 464.239 274.372 458.825 276.823 454.454C279.273 450.083 276.525 446.325 266.772 441.888C261.805 439.619 250.53 430.298 249.238 429.106C248.043 427.89 246.977 426.553 246.059 425.116C244.01 422.143 242.652 418.749 242.085 415.182C241.648 411.409 241.833 407.589 242.632 403.874C242.797 403.014 243.228 402.119 242.863 401.341C241.92 399.255 238.658 399.802 236.853 399.951C234.154 400.227 231.477 400.686 228.839 401.325C227.965 401.427 227.137 401.778 226.455 402.335C225.912 402.991 225.552 403.779 225.412 404.619C225.064 405.861 224.7 407.103 224.303 408.312C224.214 408.751 224.04 409.169 223.79 409.541C223.54 409.913 223.219 410.232 222.846 410.48C222.43 410.641 221.975 410.67 221.543 410.564C221.11 410.457 220.721 410.22 220.428 409.884C219.863 409.203 219.542 408.352 219.518 407.467C219.518 406.573 219.518 405.696 219.617 404.818C219.712 403.971 219.544 403.116 219.137 402.368C218.16 400.828 215.693 400.58 215.064 398.874C214.928 398.405 214.926 397.907 215.058 397.436C215.189 396.965 215.449 396.54 215.809 396.209C216.561 395.574 217.493 395.191 218.474 395.116C219.439 395.049 220.407 395.049 221.372 395.116L221.902 393.063C219.608 392.727 217.266 393.024 215.13 393.924C213.782 394.493 212.684 395.527 212.034 396.838C211.454 398.471 211.367 400.239 211.785 401.921C212.199 405.795 211.487 407.914 210.858 411.788Z" fill="#47B4EB"/>
<path opacity="0.15" d="M210.858 411.788C210.543 413.759 210.095 415.706 209.517 417.616C207.861 422.864 205.295 428.278 206.388 435.033C208.209 438.345 212.017 439.504 214.865 440.762C218.69 442.417 221.488 443.593 224.187 446.904C229.154 452.848 233.807 460.365 248.675 462.302C263.544 464.239 274.372 458.825 276.823 454.454C279.273 450.083 276.525 446.325 266.772 441.888C261.805 439.619 250.53 430.298 249.238 429.106C248.043 427.89 246.977 426.553 246.059 425.116C244.01 422.143 242.652 418.749 242.085 415.182C241.648 411.409 241.833 407.589 242.632 403.874C242.797 403.014 243.228 402.119 242.863 401.341C241.92 399.255 238.658 399.802 236.853 399.951C234.154 400.227 231.477 400.686 228.839 401.325C227.965 401.427 227.137 401.778 226.455 402.335C225.912 402.991 225.552 403.779 225.412 404.619C225.064 405.861 224.7 407.103 224.303 408.312C224.214 408.751 224.04 409.169 223.79 409.541C223.54 409.913 223.219 410.232 222.846 410.48C222.43 410.641 221.975 410.67 221.543 410.564C221.11 410.457 220.721 410.22 220.428 409.884C219.863 409.203 219.542 408.352 219.518 407.467C219.518 406.573 219.518 405.696 219.617 404.818C219.712 403.971 219.544 403.116 219.137 402.368C218.16 400.828 215.693 400.58 215.064 398.874C214.928 398.405 214.926 397.907 215.058 397.436C215.189 396.965 215.449 396.54 215.809 396.209C216.561 395.574 217.493 395.191 218.474 395.116C219.439 395.049 220.407 395.049 221.372 395.116L221.902 393.063C219.608 392.727 217.266 393.024 215.13 393.924C213.782 394.493 212.684 395.527 212.034 396.838C211.454 398.471 211.367 400.239 211.785 401.921C212.199 405.795 211.487 407.914 210.858 411.788Z" fill="black"/>
<path d="M238.807 459.719C238.794 456.262 239.708 452.866 241.456 449.883C243.203 446.901 245.72 444.443 248.742 442.765C259.421 436.374 266.392 439.57 269.952 441.772C274.174 444.404 280.35 450.05 277.138 454.719C273.677 459.685 267.766 462.384 256.491 463.278C245.215 464.172 238.807 459.719 238.807 459.719Z" fill="#FAFAFA"/>
<path d="M224.071 421.358C224.268 421.38 224.467 421.353 224.651 421.281C224.836 421.209 225 421.093 225.13 420.944C226.604 419.371 235.561 413.957 242.333 416.738C242.499 416.49 242.781 414.835 241.969 414.321C238.676 413.59 235.254 413.659 231.993 414.524C228.732 415.388 225.725 417.022 223.226 419.288C223.027 419.525 222.927 419.83 222.949 420.14C222.97 420.449 223.111 420.737 223.342 420.944C223.536 421.154 223.791 421.299 224.071 421.358Z" fill="#FAFAFA"/>
<path d="M245.182 423.825C245.183 423.35 245.087 422.88 244.899 422.445C244.711 422.009 244.435 421.616 244.089 421.292C236.373 420.199 228.624 425.05 226.919 426.888C226.721 427.127 226.625 427.433 226.649 427.742C226.674 428.052 226.818 428.339 227.051 428.543C227.255 428.72 227.511 428.825 227.78 428.841C227.975 428.863 228.173 428.838 228.357 428.769C228.541 428.7 228.706 428.588 228.84 428.444C230.263 426.971 239.089 421.855 245.182 423.825Z" fill="#FAFAFA"/>
<path d="M256.855 435.298C256.739 434.504 255.199 433.311 253.891 432.98C245.364 432.401 238.161 438.891 236.754 441.043C236.668 441.177 236.609 441.327 236.582 441.484C236.555 441.641 236.561 441.801 236.598 441.956C236.635 442.111 236.703 442.257 236.798 442.384C236.894 442.512 237.014 442.619 237.151 442.699C237.386 442.838 237.658 442.902 237.93 442.881C238.124 442.866 238.313 442.808 238.482 442.71C238.651 442.613 238.796 442.479 238.907 442.318C240.165 440.414 248.775 433.146 256.855 435.298Z" fill="#FAFAFA"/>
<path d="M232.217 436.259C232.412 436.25 232.603 436.199 232.777 436.111C232.951 436.022 233.105 435.898 233.227 435.745C234.469 434.007 241.953 427.467 249.652 429.437C249.652 428.759 248.294 427.418 247.599 427.235C239.966 426.54 232.581 432.318 231.041 434.355C230.864 434.616 230.797 434.937 230.856 435.248C230.915 435.558 231.095 435.832 231.356 436.01C231.607 436.188 231.91 436.276 232.217 436.259Z" fill="#FAFAFA"/>
<path d="M144.397 418.228C137.443 417.665 134.313 418.228 135.091 425.646C135.87 433.063 135.952 438.775 135.952 438.775C135.952 438.775 148.354 439.652 154.265 436.672C160.176 433.692 154.894 419.089 144.397 418.228Z" fill="#47B4EB"/>
<path opacity="0.5" d="M144.397 418.228C137.443 417.665 134.313 418.228 135.091 425.646C135.87 433.063 135.952 438.775 135.952 438.775C135.952 438.775 148.354 439.652 154.265 436.672C160.176 433.692 154.894 419.089 144.397 418.228Z" fill="black"/>
<path d="M144.182 449.967C143.725 449.947 143.27 449.886 142.824 449.785C141.925 449.569 141.078 449.178 140.33 448.634C139.583 448.09 138.95 447.404 138.468 446.615C137.987 445.825 137.666 444.949 137.524 444.035C137.382 443.122 137.422 442.189 137.642 441.291C139.827 432.202 141.914 425.215 143.751 419.023C146.523 410.46 148.638 401.699 150.076 392.815C151.976 378.993 149.571 364.922 143.188 352.516C142.449 350.889 142.356 349.041 142.93 347.348C143.503 345.654 144.7 344.243 146.276 343.4C147.853 342.557 149.691 342.345 151.418 342.809C153.145 343.272 154.631 344.375 155.573 345.894C163.389 360.951 166.328 378.066 163.985 394.867C162.457 404.409 160.199 413.818 157.229 423.013C155.441 429.023 153.421 435.828 151.318 444.536C150.946 446.13 150.03 447.544 148.727 448.535C147.425 449.527 145.817 450.033 144.182 449.967Z" fill="#455A64"/>
<path d="M126.978 458.758C126.573 460.095 126.5 461.51 126.763 462.881C127.657 464.735 132.956 467.202 135.754 468.493C139.631 470.189 142.712 473.306 144.364 477.202C147.311 483.129 152.94 487.301 159.265 490.033C167.819 493.446 177.208 494.18 186.188 492.136C197.364 489.851 198.109 483.195 198.109 483.195C198.109 483.195 198.539 476.954 195.725 476.043C192.91 475.132 126.978 458.758 126.978 458.758Z" fill="#455A64"/>
<path d="M132.41 435.728C131.983 437.683 131.43 439.607 130.754 441.49C128.933 446.672 126.085 451.954 126.896 458.758C128.552 462.069 132.31 463.46 135.175 464.851C138.933 466.705 141.632 467.947 144.232 471.374C148.901 477.517 153.272 485.232 168.058 487.781C182.843 490.331 193.887 485.381 196.503 481.159C199.119 476.937 196.503 473.03 186.983 468.179C182.131 465.712 171.237 455.96 169.995 454.685C166.463 450.688 164.163 445.755 163.372 440.48C163.096 436.692 163.437 432.884 164.382 429.205C164.597 428.361 165.061 427.55 164.73 426.672C163.869 424.553 160.59 425.016 158.785 425.016C156.076 425.173 153.382 425.522 150.722 426.06C149.841 426.126 148.996 426.442 148.288 426.97C147.722 427.605 147.329 428.375 147.146 429.205C146.765 430.43 146.351 431.656 145.887 432.864C145.67 433.736 145.117 434.486 144.347 434.95C143.928 435.094 143.475 435.106 143.049 434.985C142.623 434.864 142.244 434.615 141.963 434.271C141.417 433.567 141.13 432.696 141.152 431.805C141.174 430.918 141.245 430.034 141.367 429.156C141.487 428.314 141.354 427.455 140.986 426.689C140.076 425.116 137.675 424.768 137.062 423.03C136.938 422.557 136.953 422.059 137.106 421.595C137.259 421.13 137.543 420.72 137.923 420.414C138.687 419.794 139.638 419.45 140.622 419.437C141.592 419.372 142.566 419.372 143.536 419.437L144.132 417.417C141.855 416.985 139.503 417.18 137.327 417.98C135.956 418.498 134.817 419.491 134.115 420.778C133.474 422.381 133.313 424.135 133.651 425.828C133.999 429.801 133.204 431.871 132.41 435.728Z" fill="#47B4EB"/>
<path opacity="0.15" d="M132.41 435.728C131.983 437.683 131.43 439.607 130.754 441.49C128.933 446.672 126.085 451.954 126.896 458.758C128.552 462.069 132.31 463.46 135.175 464.851C138.933 466.705 141.632 467.947 144.232 471.374C148.901 477.517 153.272 485.232 168.058 487.781C182.843 490.331 193.887 485.381 196.503 481.159C199.119 476.937 196.503 473.03 186.983 468.179C182.131 465.712 171.237 455.96 169.995 454.685C166.463 450.688 164.163 445.755 163.372 440.48C163.096 436.692 163.437 432.884 164.382 429.205C164.597 428.361 165.061 427.55 164.73 426.672C163.869 424.553 160.59 425.016 158.785 425.016C156.076 425.173 153.382 425.522 150.722 426.06C149.841 426.126 148.996 426.442 148.288 426.97C147.722 427.605 147.329 428.375 147.146 429.205C146.765 430.43 146.351 431.656 145.887 432.864C145.67 433.736 145.117 434.486 144.347 434.95C143.928 435.094 143.475 435.106 143.049 434.985C142.623 434.864 142.244 434.615 141.963 434.271C141.417 433.567 141.13 432.696 141.152 431.805C141.174 430.918 141.245 430.034 141.367 429.156C141.487 428.314 141.354 427.455 140.986 426.689C140.076 425.116 137.675 424.768 137.062 423.03C136.938 422.557 136.953 422.059 137.106 421.595C137.259 421.13 137.543 420.72 137.923 420.414C138.687 419.794 139.638 419.45 140.622 419.437C141.592 419.372 142.566 419.372 143.536 419.437L144.132 417.417C141.855 416.985 139.503 417.18 137.327 417.98C135.956 418.498 134.817 419.491 134.115 420.778C133.474 422.381 133.313 424.135 133.651 425.828C133.999 429.801 133.204 431.871 132.41 435.728Z" fill="black"/>
<path d="M158.322 484.785C158.446 481.326 159.499 477.964 161.369 475.051C163.239 472.138 165.858 469.782 168.952 468.229C179.896 462.285 186.734 465.762 190.195 468.129C194.301 470.927 200.229 476.854 196.818 481.374C193.142 486.225 187.132 488.643 175.823 489.056C164.514 489.47 158.322 484.785 158.322 484.785Z" fill="#FAFAFA"/>
<path d="M145.225 445.762C145.419 445.792 145.618 445.776 145.804 445.716C145.991 445.655 146.162 445.552 146.301 445.414C147.825 443.891 156.997 438.792 163.653 441.937C163.836 441.672 164.183 440.05 163.389 439.504C160.125 438.638 156.702 438.568 153.405 439.299C150.109 440.031 147.037 441.543 144.447 443.709C144.229 443.929 144.106 444.227 144.106 444.537C144.106 444.847 144.229 445.144 144.447 445.365C144.651 445.585 144.927 445.725 145.225 445.762Z" fill="#FAFAFA"/>
<path d="M166.203 449.205C166.234 448.728 166.161 448.251 165.989 447.805C165.818 447.359 165.552 446.956 165.21 446.622C157.56 445.198 149.613 449.718 147.841 451.49C147.623 451.71 147.5 452.008 147.5 452.318C147.5 452.628 147.623 452.925 147.841 453.145C148.083 453.372 148.403 453.499 148.735 453.499C149.067 453.499 149.387 453.372 149.629 453.145C151.169 451.705 160.193 446.97 166.203 449.205Z" fill="#FAFAFA"/>
<path d="M177.38 461.093C177.38 460.298 175.724 459.04 174.515 458.659C166.021 457.715 158.554 463.907 157.047 465.994C156.958 466.124 156.897 466.271 156.866 466.426C156.836 466.581 156.837 466.741 156.869 466.895C156.902 467.05 156.965 467.196 157.055 467.326C157.146 467.455 157.261 467.565 157.395 467.649C157.619 467.8 157.886 467.875 158.156 467.864C158.353 467.856 158.546 467.804 158.721 467.712C158.895 467.621 159.047 467.492 159.166 467.335C160.491 465.563 169.399 458.659 177.38 461.093Z" fill="#FAFAFA"/>
<path d="M152.709 461.093C152.907 461.094 153.103 461.051 153.283 460.968C153.464 460.885 153.623 460.764 153.752 460.613C155.076 458.957 162.809 452.699 170.425 455C170.508 454.321 169.15 452.947 168.471 452.715C160.871 451.705 153.255 457.169 151.715 459.139C151.622 459.264 151.554 459.406 151.516 459.557C151.478 459.708 151.47 459.865 151.493 460.019C151.516 460.173 151.57 460.321 151.65 460.454C151.731 460.587 151.838 460.703 151.964 460.795C152.173 460.973 152.434 461.077 152.709 461.093Z" fill="#FAFAFA"/>
<path d="M323.879 296.192C317.157 296.192 308.779 293.825 299.474 287.484C298.376 286.731 297.622 285.572 297.378 284.264C297.135 282.955 297.421 281.603 298.174 280.505C298.927 279.407 300.085 278.654 301.394 278.41C302.703 278.166 304.055 278.452 305.153 279.205C317.67 287.749 326.677 286.755 329.989 284.818C330.779 284.206 331.431 283.434 331.902 282.552C332.373 281.671 332.652 280.699 332.721 279.702C333.516 274.735 331.893 266.755 324.972 258.941C310.335 242.384 291.973 233.924 263.561 230.53C262.243 230.372 261.043 229.697 260.223 228.654C259.403 227.611 259.031 226.284 259.189 224.967C259.348 223.65 260.022 222.449 261.066 221.63C262.109 220.81 263.435 220.438 264.753 220.596C295.417 224.239 316.296 234.023 332.489 252.318C340.337 261.176 344.079 272.02 342.655 281.325C342.385 283.796 341.561 286.175 340.245 288.284C338.93 290.394 337.156 292.18 335.055 293.51C331.635 295.384 327.777 296.31 323.879 296.192Z" fill="#455A64"/>
<path d="M260.332 167.351C267.932 160.182 274.637 139.123 271.177 117.003C267.716 94.8842 247.285 74.2054 239.138 69.7186C230.992 65.2318 225.263 71.0265 227.548 79.2881C230.562 90.4967 234.32 115.712 213.375 126.854C215.705 137.634 220.43 147.751 227.2 156.457C237.996 169.487 260.332 167.351 260.332 167.351Z" fill="#47B4EB"/>
<path opacity="0.75" d="M260.332 167.351C267.932 160.182 274.637 139.123 271.177 117.003C267.716 94.8842 247.285 74.2054 239.138 69.7186C230.992 65.2318 225.263 71.0265 227.548 79.2881C230.562 90.4967 234.32 115.712 213.375 126.854C215.705 137.634 220.43 147.751 227.2 156.457C237.996 169.487 260.332 167.351 260.332 167.351Z" fill="white"/>
<path d="M231.919 83.6094C230.101 83.616 228.293 83.348 226.555 82.8147C226.299 82.7311 226.087 82.5508 225.963 82.3125C225.839 82.0741 225.814 81.7968 225.892 81.5399C225.934 81.4137 225.999 81.2969 226.086 81.1962C226.172 81.0955 226.278 81.0128 226.396 80.9528C226.514 80.8928 226.643 80.8568 226.776 80.8467C226.908 80.8367 227.041 80.8528 227.167 80.8942C233.79 82.9968 242.648 80.5465 244.884 73.6591C244.924 73.5341 244.988 73.4182 245.073 73.3181C245.158 73.218 245.262 73.1356 245.379 73.0756C245.496 73.0157 245.623 72.9793 245.754 72.9686C245.885 72.958 246.017 72.9732 246.142 73.0134C246.267 73.0536 246.383 73.1181 246.483 73.2031C246.583 73.2881 246.665 73.392 246.725 73.5088C246.785 73.6256 246.822 73.7532 246.832 73.884C246.843 74.0149 246.828 74.1467 246.788 74.2717C244.784 80.4803 238.244 83.6094 231.919 83.6094Z" fill="#47B4EB"/>
<path d="M239.453 97.5332C235.558 97.5098 231.739 96.4467 228.393 94.4537C228.176 94.3141 228.02 94.0968 227.959 93.8464C227.897 93.596 227.933 93.3314 228.06 93.107C228.187 92.8825 228.395 92.7152 228.642 92.6393C228.888 92.5633 229.155 92.5846 229.386 92.6987C231.597 94.0425 234.053 94.9323 236.612 95.3161C239.17 95.6999 241.78 95.5699 244.288 94.9338C253.427 92.7318 255.381 87.3842 255.795 85.1822C255.803 85.039 255.841 84.8991 255.908 84.7719C255.974 84.6447 256.067 84.533 256.179 84.4444C256.292 84.3558 256.422 84.2922 256.562 84.2579C256.701 84.2235 256.846 84.2193 256.987 84.2453C257.128 84.2714 257.262 84.3272 257.38 84.4091C257.498 84.4909 257.597 84.5969 257.67 84.72C257.744 84.8431 257.79 84.9805 257.807 85.123C257.823 85.2655 257.809 85.4098 257.765 85.5464C257.269 88.1292 255.033 94.404 244.751 96.8875C243.016 97.306 241.238 97.5227 239.453 97.5332Z" fill="#47B4EB"/>
<path d="M249.851 114.951C245.666 115.001 241.516 114.189 237.659 112.565C233.802 110.941 230.321 108.541 227.432 105.513C227.244 105.324 227.139 105.068 227.139 104.802C227.139 104.535 227.244 104.279 227.432 104.09C227.525 103.995 227.636 103.919 227.758 103.867C227.88 103.816 228.012 103.789 228.144 103.789C228.277 103.789 228.408 103.816 228.531 103.867C228.653 103.919 228.764 103.995 228.856 104.09C231.556 106.92 234.811 109.163 238.418 110.676C242.026 112.188 245.907 112.939 249.818 112.881C262.733 112.881 266.557 106.821 268.197 104.239C268.266 104.125 268.357 104.027 268.465 103.949C268.573 103.872 268.696 103.817 268.825 103.787C268.955 103.758 269.089 103.755 269.22 103.778C269.351 103.802 269.476 103.851 269.587 103.924C269.813 104.067 269.973 104.294 270.032 104.554C270.091 104.815 270.044 105.089 269.902 105.315C268.263 107.98 263.859 114.951 249.851 114.951Z" fill="#47B4EB"/>
<path d="M255.116 135.149C251.132 135.151 247.173 134.508 243.394 133.245C233.89 130.033 227.018 124.52 222.995 116.871C222.903 116.64 222.9 116.384 222.986 116.151C223.071 115.917 223.24 115.724 223.459 115.607C223.678 115.491 223.933 115.459 224.174 115.518C224.415 115.577 224.626 115.722 224.767 115.927C228.608 123.229 234.9 128.262 244.039 131.341C256.623 135.58 268.644 131.341 272.005 128.262C272.205 128.119 272.45 128.055 272.695 128.081C272.939 128.106 273.166 128.22 273.332 128.401C273.499 128.581 273.594 128.817 273.599 129.062C273.605 129.308 273.521 129.547 273.362 129.735C270.796 132.169 263.743 135.149 255.116 135.149Z" fill="#47B4EB"/>
<path opacity="0.1" d="M229.717 149.387C247.748 128.808 240.777 96.4073 236.34 87.0695C230.098 73.9901 232.747 68.245 238.211 69.2715C230.578 65.7285 225.362 71.3576 227.482 79.2053C230.495 90.4139 234.254 115.629 213.309 126.772C215.448 136.465 219.488 145.637 225.197 153.758C226.818 152.424 228.329 150.963 229.717 149.387Z" fill="black"/>
<path d="M276.889 289.487C270.762 274.586 267.716 233.344 268.974 206.258C273.08 205.397 278.097 199.801 276.077 192.566C274.256 186.06 272.484 185.199 266.987 178.179C263.08 173.212 260.364 166.589 256.854 161.159C244.8 142.715 229.485 130.414 206.934 125.099C206.017 124.881 205.154 124.479 204.397 123.917C203.639 123.356 203.004 122.646 202.529 121.832C202.054 121.018 201.749 120.116 201.632 119.181C201.516 118.246 201.59 117.296 201.851 116.391C203.291 111.424 204.516 104.934 203.01 100.166C200.211 91.3576 194.648 90.4635 190.972 92.1026C187.297 93.7417 187.015 97.3841 188.125 103.295C189.234 109.205 187.495 110.248 185.525 109.619C183.555 108.99 182.081 98.2284 168.322 93.1788C154.563 88.1291 145.274 94.8344 145.506 100.43C145.754 106.639 150.258 107.053 159.811 108.146C163.96 108.537 167.864 110.282 170.921 113.113C171.783 114.015 172.388 115.132 172.673 116.347C172.958 117.562 172.914 118.831 172.544 120.023C172.174 121.215 171.493 122.286 170.57 123.126C169.647 123.966 168.517 124.545 167.295 124.801C132.31 132.566 105.222 161.722 97.4564 201.06C96.1924 208.126 95.3739 215.265 95.0059 222.434C92.5682 218.292 88.6127 215.264 83.9787 213.99C77.2233 212.334 74.541 215.563 74.6403 218.576C74.7397 221.589 78.4817 223.03 82.2733 224.603C88.3499 227.119 89.3433 229.454 89.3433 229.454C86.1791 228.968 82.9433 229.292 79.9387 230.397C75.7828 232.235 74.69 236.722 78.7135 238.444C80.9487 239.387 84.3761 237.682 87.9028 236.788C90.1215 236.275 94.2277 235.447 94.5258 238.113C94.5258 244.354 94.5258 250.861 94.6748 257.566C95.188 276.457 98.4995 289.387 95.4861 306.523C93.1846 319.503 81.8263 329.702 93.2343 340.48C95.312 342.418 97.827 343.826 100.565 344.584C103.304 345.343 106.185 345.428 108.964 344.834C110.787 344.504 112.667 344.891 114.21 345.916C115.753 346.941 116.84 348.523 117.242 350.331C118.517 355.712 122.408 362.268 133.402 365.232C143.536 367.914 149.96 364.834 153.983 361.076C154.64 360.417 155.425 359.9 156.288 359.555C157.152 359.21 158.078 359.044 159.008 359.069C159.937 359.094 160.853 359.308 161.697 359.699C162.541 360.09 163.297 360.648 163.918 361.341C168.14 366.391 175.971 371.805 190.128 371.738C204.285 371.672 211.404 365.53 214.964 360.298C215.936 358.794 217.445 357.717 219.184 357.29C220.924 356.862 222.76 357.115 224.319 357.997C229.684 361.175 238.327 363.725 249.155 357.997C257.152 353.725 259.222 346.06 259.421 339.785C259.451 338.817 259.685 337.866 260.106 336.994C260.528 336.122 261.129 335.349 261.869 334.725C262.609 334.1 263.472 333.638 264.403 333.369C265.333 333.1 266.309 333.029 267.269 333.162C270.444 333.817 273.743 333.49 276.727 332.224C279.711 330.958 282.24 328.814 283.975 326.076C291.542 314.553 282.386 302.914 276.889 289.487Z" fill="#47B4EB"/>
<g opacity="0.1">
<mask id="mask0_358_1222" style="mask-type:alpha" maskUnits="userSpaceOnUse" x="74" y="91" width="213" height="281">
<path d="M276.889 289.487C270.762 274.586 267.716 233.344 268.974 206.258C273.08 205.397 278.097 199.801 276.077 192.566C274.256 186.06 272.484 185.199 266.987 178.179C263.08 173.212 260.364 166.589 256.854 161.159C244.8 142.715 229.485 130.414 206.934 125.099C206.017 124.881 205.154 124.479 204.397 123.917C203.639 123.356 203.004 122.646 202.529 121.832C202.054 121.018 201.749 120.116 201.632 119.181C201.516 118.246 201.59 117.296 201.851 116.391C203.291 111.424 204.516 104.934 203.01 100.166C200.211 91.3576 194.648 90.4635 190.972 92.1026C187.297 93.7417 187.015 97.3841 188.125 103.295C189.234 109.205 187.495 110.248 185.525 109.619C183.555 108.99 182.081 98.2284 168.322 93.1788C154.563 88.1291 145.274 94.8344 145.506 100.43C145.754 106.639 150.258 107.053 159.811 108.146C163.96 108.537 167.864 110.282 170.921 113.113C171.783 114.015 172.388 115.132 172.673 116.347C172.958 117.562 172.914 118.831 172.544 120.023C172.174 121.215 171.493 122.286 170.57 123.126C169.647 123.966 168.517 124.545 167.295 124.801C132.31 132.566 105.222 161.722 97.4564 201.06C96.1924 208.126 95.3739 215.265 95.0059 222.434C92.5682 218.292 88.6127 215.264 83.9787 213.99C77.2233 212.334 74.541 215.563 74.6403 218.576C74.7397 221.589 78.4817 223.03 82.2733 224.603C88.3499 227.119 89.3433 229.454 89.3433 229.454C86.1791 228.968 82.9433 229.292 79.9387 230.397C75.7828 232.235 74.69 236.722 78.7135 238.444C80.9487 239.387 84.3761 237.682 87.9028 236.788C90.1215 236.275 94.2277 235.447 94.5258 238.113C94.5258 244.354 94.5258 250.861 94.6748 257.566C95.188 276.457 98.4995 289.387 95.4861 306.523C93.1846 319.503 81.8263 329.702 93.2343 340.48C95.312 342.418 97.827 343.826 100.565 344.584C103.304 345.343 106.185 345.428 108.964 344.834C110.787 344.504 112.667 344.891 114.21 345.916C115.753 346.941 116.84 348.523 117.242 350.331C118.517 355.712 122.408 362.268 133.402 365.232C143.536 367.914 149.96 364.834 153.983 361.076C154.64 360.417 155.425 359.9 156.288 359.555C157.152 359.21 158.078 359.044 159.008 359.069C159.937 359.094 160.853 359.308 161.697 359.699C162.541 360.09 163.297 360.648 163.918 361.341C168.14 366.391 175.971 371.805 190.128 371.738C204.285 371.672 211.404 365.53 214.964 360.298C215.936 358.794 217.445 357.717 219.184 357.29C220.924 356.862 222.76 357.115 224.319 357.997C229.684 361.175 238.327 363.725 249.155 357.997C257.152 353.725 259.222 346.06 259.421 339.785C259.451 338.817 259.685 337.866 260.106 336.994C260.528 336.122 261.129 335.349 261.869 334.725C262.609 334.1 263.472 333.638 264.403 333.369C265.333 333.1 266.309 333.029 267.269 333.162C270.444 333.817 273.743 333.49 276.727 332.224C279.711 330.958 282.24 328.814 283.975 326.076C291.542 314.553 282.386 302.914 276.889 289.487Z" fill="#47B4EB"/>
</mask>
<g mask="url(#mask0_358_1222)">
<path d="M200.427 374.822L221.292 357.23C200.427 357.23 176.316 348.43 158.024 328.534C82.1682 246.03 97.8563 176.817 170.266 122.466L92.4211 151.445L66.2378 226.722L92.4211 374.822H200.427Z" fill="black"/>
<path d="M191.767 100.728C191.469 95.4965 194.797 91.5561 198.903 93.278C197.836 92.3373 196.519 91.7257 195.112 91.5171C193.704 91.3085 192.267 91.5118 190.972 92.1025C187.28 93.7581 187.015 97.384 188.124 103.295C189.234 109.205 187.495 110.248 185.525 109.619C185.137 109.412 184.824 109.088 184.631 108.692C186.154 112.003 187.628 115.314 191.072 113.526C194.516 111.738 192.065 105.944 191.767 100.728Z" fill="black"/>
</g>
</g>
<path opacity="0.2" d="M158.454 220.083C159.079 222.435 160.484 224.506 162.439 225.955C164.394 227.405 166.784 228.148 169.216 228.063C178.075 227.947 179.051 223.924 182.678 218.427C186.304 212.93 194.102 211.705 200.891 211.589C202.685 211.5 204.431 210.973 205.975 210.053C207.519 209.134 208.815 207.851 209.749 206.316C210.683 204.781 211.227 203.041 211.334 201.248C211.441 199.454 211.107 197.661 210.361 196.026C210.542 197.812 210.215 199.612 209.418 201.22C208.622 202.827 207.388 204.178 205.858 205.116C200.427 208.659 193.208 205.463 186.105 208.857C179.002 212.252 178.389 219.917 173.174 222.351C170.748 223.361 168.092 223.683 165.495 223.283C162.899 222.883 160.463 221.776 158.454 220.083Z" fill="black"/>
<path d="M199.947 215.497C199.667 218.28 198.513 220.903 196.651 222.99C194.788 225.076 192.313 226.52 189.579 227.114C186.846 227.708 183.995 227.421 181.434 226.295C178.874 225.168 176.736 223.261 175.326 220.845C178.836 217.533 180.161 211.904 186.088 208.858C190.774 206.474 194.367 207.566 198.258 207.451C199.654 209.888 200.245 212.704 199.947 215.497Z" fill="#455A64"/>
<path d="M155.64 216.059C157.295 219.735 161.021 224.122 169.564 223.377C178.505 222.599 177.843 213.145 186.122 208.907C193.722 205.033 198.374 210.298 206.338 204.867C213.524 199.9 209.451 190.281 206.752 188.311" stroke="#455A64" stroke-width="1.21" stroke-miterlimit="10" stroke-linecap="round"/>
<path d="M196.486 214.056C196.48 214.78 196.258 215.487 195.85 216.085C195.442 216.683 194.865 217.147 194.193 217.417C193.521 217.688 192.784 217.752 192.075 217.603C191.366 217.454 190.717 217.098 190.211 216.58C189.704 216.062 189.363 215.406 189.23 214.694C189.097 213.982 189.179 213.246 189.464 212.581C189.75 211.915 190.226 211.349 190.834 210.954C191.441 210.56 192.152 210.354 192.877 210.364C193.356 210.368 193.831 210.467 194.272 210.656C194.713 210.844 195.113 211.117 195.449 211.46C195.784 211.803 196.048 212.209 196.226 212.655C196.404 213.1 196.493 213.576 196.486 214.056Z" fill="#F5F5F5"/>
<path opacity="0.2" d="M268.958 206.705L268.081 206.258C266.28 206.137 264.553 205.492 263.113 204.404C261.342 202.748 259.355 197.401 253.692 196.026C248.03 194.652 244.851 197.401 238.559 197.682C232.267 197.963 230.164 193.609 228.906 189.967C228.227 196.142 229.982 200.281 234.453 202.103C239.42 204.122 248.427 199.884 252.268 202.103C256.11 204.321 258.328 208.907 263.113 209.437C265.093 209.737 267.114 209.333 268.826 208.295C268.908 207.781 268.942 207.235 268.958 206.705Z" fill="black"/>
<path d="M263.179 204.471C262.394 207.605 260.446 210.324 257.731 212.076C255.015 213.827 251.735 214.481 248.555 213.904C245.375 213.327 242.534 211.563 240.607 208.969C238.68 206.375 237.812 203.145 238.178 199.934C238.26 199.188 238.409 198.451 238.625 197.732C243.294 197.616 247.549 194.421 253.758 196.077C259.206 197.533 259.586 201.855 263.179 204.471Z" fill="#455A64"/>
<path d="M229.22 185.778C228.653 187.716 228.743 189.787 229.477 191.668C230.211 193.549 231.547 195.134 233.277 196.176C240.496 200.53 245.298 193.692 253.742 196.027C260.1 197.682 259.57 203.262 265.15 205.464C266.369 205.947 267.663 206.216 268.975 206.258" stroke="#455A64" stroke-width="1.21" stroke-miterlimit="10" stroke-linecap="round"/>
<path d="M257.666 203.725C257.659 204.402 257.45 205.062 257.067 205.621C256.684 206.179 256.143 206.611 255.513 206.86C254.884 207.11 254.194 207.167 253.532 207.023C252.87 206.88 252.266 206.543 251.796 206.054C251.327 205.566 251.013 204.949 250.896 204.282C250.778 203.615 250.862 202.928 251.137 202.309C251.411 201.69 251.863 201.166 252.437 200.805C253.01 200.444 253.677 200.262 254.354 200.281C254.8 200.281 255.242 200.371 255.653 200.545C256.063 200.72 256.435 200.976 256.744 201.297C257.053 201.619 257.294 202 257.453 202.417C257.611 202.834 257.684 203.279 257.666 203.725Z" fill="#F5F5F5"/>
<path d="M217.498 232.02C200.295 239.719 185.178 254.934 178.191 271.755C173.886 282.103 176.237 290.695 181.999 292.649C193.39 296.49 206.156 278.742 218.855 272.55C231.555 266.358 241.887 272.351 248.328 268.195C255.911 263.311 254.801 250.844 250.728 241.954C246.192 231.987 234.717 224.338 217.498 232.02Z" fill="#455A64"/>
<path d="M247.897 268.394C241.589 246.457 220.991 239.619 200.096 242.931C190.597 250.639 183.086 260.512 178.191 271.722C173.886 282.07 176.237 290.662 181.999 292.616C193.39 296.457 206.156 278.709 218.855 272.517C231.141 266.523 241.423 272.037 247.897 268.394Z" fill="#F28F8F"/>
<path opacity="0.1" d="M234.37 269.536C213.226 263.858 199.599 282.02 192.894 281.854C186.188 281.689 182.959 275.844 192.248 261.026C201.537 246.209 221.405 242.152 230.081 246.49C221.422 242.219 210.842 241.242 200.162 242.93C190.664 250.639 183.152 260.512 178.257 271.722C173.952 282.053 176.303 290.662 182.065 292.616C193.457 296.457 206.222 278.709 218.922 272.517C223.745 270.261 229.053 269.237 234.37 269.536Z" fill="black"/>
<path d="M242.416 248.543C238.343 250.314 238.393 255.728 235.032 267.235C234.8 268.046 234.568 268.891 234.336 269.553C239.999 269.685 244.784 270.447 248.327 268.162C249.036 267.688 249.686 267.133 250.265 266.506C251.092 257.814 246.721 246.672 242.416 248.543Z" fill="#F5F5F5"/>
<path d="M250.265 266.54C250.359 265.505 250.386 264.465 250.347 263.427C249.185 264.996 247.509 266.109 245.612 266.573C243.446 266.923 241.238 266.923 239.072 266.573C239.072 266.573 240.132 259.851 241.191 254.073C241.887 250.199 244.205 248.51 246.059 249.851C244.917 248.576 243.675 247.997 242.416 248.543C238.343 250.314 238.393 255.728 235.032 267.235C234.8 268.046 234.568 268.891 234.336 269.553C239.999 269.685 244.784 270.447 248.327 268.162C249.034 267.699 249.684 267.154 250.265 266.54Z" fill="#E0E0E0"/>
<path d="M198.721 262.831C194.632 264.603 194.698 270.017 191.337 281.523C189.863 286.49 188.605 290.265 187.628 292.914C193.704 291.755 200.079 286.291 206.553 281.043C207.464 272.351 203.059 260.944 198.721 262.831Z" fill="#F5F5F5"/>
<path d="M206.553 281.026C206.678 279.589 206.678 278.143 206.553 276.705C200.113 280.877 196.238 285.348 195.212 284.785C194.185 284.222 195.079 279.702 195.51 274.735C196.039 268.725 196.785 262.5 200.791 262.93C200.467 262.759 200.109 262.662 199.743 262.645C199.377 262.628 199.011 262.691 198.672 262.831C194.582 264.603 194.649 270.017 191.287 281.523C189.814 286.49 188.555 290.265 187.579 292.914C193.655 291.755 200.03 286.291 206.504 281.043L206.553 281.026Z" fill="#E0E0E0"/>
<path d="M58.4641 337.566C57.9018 337.564 57.3432 337.475 56.8083 337.301C56.179 337.098 55.5967 336.77 55.0955 336.339C54.5944 335.907 54.1845 335.38 53.8899 334.788C53.5953 334.195 53.422 333.55 53.3801 332.89C53.3382 332.23 53.4286 331.568 53.6459 330.944C67.1401 291.06 86.7275 274.205 114.113 259.934C114.698 259.629 115.337 259.443 115.994 259.386C116.651 259.328 117.313 259.401 117.942 259.599C118.571 259.798 119.154 260.118 119.659 260.542C120.164 260.965 120.581 261.485 120.885 262.07C121.19 262.654 121.376 263.293 121.433 263.95C121.491 264.607 121.418 265.269 121.22 265.898C121.022 266.526 120.701 267.11 120.277 267.615C119.854 268.12 119.334 268.537 118.749 268.841C92.9365 282.285 75.5844 297.285 63.2326 334.139C62.8943 335.136 62.2527 336.002 61.3977 336.617C60.5427 337.231 59.517 337.563 58.4641 337.566Z" fill="#455A64"/>
<path d="M54.9209 327.351C52.8181 332.815 49.606 335.017 46.5428 338.245C43.4797 341.474 40.1683 343.427 36.9727 348.46C33.7771 353.493 32.2704 362.037 33.2307 366.027C33.7606 368.278 36.8899 368.295 37.072 366.325C37.7509 358.974 38.9761 352.649 44.1255 348.725C42.0736 352.992 40.7367 357.568 40.1683 362.268C39.7047 368.725 40.5656 376.441 43.2314 376.821C45.8971 377.202 45.8143 374.47 45.4335 370.58C45.0527 366.689 44.705 356.424 49.8874 349.056C49.8874 349.056 48.033 359.884 49.8874 366.805C51.7419 373.725 55.3183 378.659 57.3051 377.815C59.292 376.97 59.1927 375.646 57.0402 370.331C55.3845 366.209 55.3845 360.977 55.8812 356.54C55.9846 352.496 57.5902 348.636 60.3848 345.712C61.4304 344.583 62.7469 343.74 64.2096 343.262C65.034 343.157 65.8714 343.237 66.6615 343.495C67.4516 343.752 68.1749 344.182 68.7794 344.752C71.0138 346.818 72.44 349.611 72.8028 352.633C73.2664 356.109 79.0119 356.424 76.8759 346.656C74.7401 336.888 62.7028 335.166 65.7163 327.186L54.9209 327.351Z" fill="#455A64"/>
<path d="M305.02 290.778L309.606 281.904C302.487 278.196 310.633 267.285 306.51 258.162C302.387 249.04 297.983 252.715 299.672 255.778C300.491 257.059 301.043 258.492 301.296 259.991C301.549 261.49 301.498 263.025 301.146 264.503C300.45 266.937 298.877 268.361 297.205 266.921C295.533 265.48 294.456 260.745 288.314 255.53C284.672 252.19 279.999 250.192 275.068 249.868C270.266 249.868 271.955 253.179 274.256 254.123C284.191 258.096 285.416 260.315 287.9 263.56C290.383 266.805 290.069 268.659 288.777 268.278C287.486 267.897 285.466 265.083 279.472 262.301C273.478 259.52 266.706 259.537 265.663 260.811C264.62 262.086 264.736 263.725 267.617 264.404C271.855 265.289 275.973 266.673 279.886 268.527C284.108 270.96 286.029 274.106 285.333 275.017C284.638 275.927 281.028 273.361 275.531 272.368C270.034 271.374 267.253 271.358 264.935 272.252C263.279 272.897 263.858 276.292 268.892 276.54C274.002 276.963 278.945 278.567 283.33 281.225C285.952 283.125 288.759 284.755 291.708 286.093C296.055 287.9 300.499 289.464 305.02 290.778Z" fill="#455A64"/>
<path d="M140.622 156.738C146.434 159.785 155.756 175.646 144.331 192.517C140.692 198.26 135.398 202.766 129.146 205.441C122.895 208.116 115.98 208.833 109.312 207.5C104.676 205.248 80.403 194.719 79.2109 161.142C78.0187 127.566 98.5996 114.785 103.832 111.755C109.064 108.725 119.296 107.897 118.021 119.387C116.746 130.877 115.538 141.076 123.883 148.46C130.439 154.305 140.622 156.738 140.622 156.738Z" fill="#47B4EB"/>
<path opacity="0.75" d="M140.622 156.738C146.434 159.785 155.756 175.646 144.331 192.517C140.692 198.26 135.398 202.766 129.146 205.441C122.895 208.116 115.98 208.833 109.312 207.5C104.676 205.248 80.403 194.719 79.2109 161.142C78.0187 127.566 98.5996 114.785 103.832 111.755C109.064 108.725 119.296 107.897 118.021 119.387C116.746 130.877 115.538 141.076 123.883 148.46C130.439 154.305 140.622 156.738 140.622 156.738Z" fill="white"/>
<path d="M97.1587 200.364C96.346 200.367 95.5337 200.328 94.7248 200.248C94.4594 200.219 94.2164 200.086 94.0488 199.878C93.8813 199.67 93.8029 199.405 93.8307 199.139C93.8599 198.874 93.993 198.631 94.2009 198.463C94.4087 198.296 94.6745 198.217 94.9401 198.245C99.9073 198.792 115.372 197.666 126.018 186.06C136.896 174.189 137.343 162.616 135.787 155C135.761 154.872 135.76 154.739 135.784 154.611C135.809 154.482 135.859 154.36 135.932 154.25C136.004 154.141 136.097 154.047 136.206 153.974C136.315 153.901 136.437 153.85 136.565 153.825C136.826 153.771 137.098 153.822 137.322 153.968C137.545 154.114 137.702 154.342 137.757 154.603C139.413 162.666 138.95 174.917 127.492 187.417C117.673 198.129 103.964 200.364 97.1587 200.364Z" fill="#47B4EB"/>
<path d="M90.9995 178.212C87.3194 178.23 83.647 177.875 80.0385 177.152C79.9102 177.124 79.7887 177.071 79.681 176.996C79.5733 176.921 79.4815 176.825 79.4108 176.714C79.34 176.603 79.2918 176.48 79.2688 176.351C79.2459 176.221 79.2486 176.089 79.2768 175.96C79.3051 175.832 79.3584 175.711 79.4336 175.603C79.5088 175.495 79.6045 175.403 79.7152 175.333C79.8259 175.262 79.9494 175.214 80.0788 175.191C80.2081 175.168 80.3407 175.171 80.469 175.199C81.2306 175.364 99.245 179.272 112.143 170.613C123.833 162.782 124.859 153.328 125.29 149.288C125.319 149.023 125.452 148.78 125.66 148.612C125.868 148.445 126.134 148.366 126.399 148.394C126.531 148.406 126.659 148.445 126.775 148.508C126.891 148.571 126.993 148.657 127.076 148.761C127.158 148.865 127.218 148.984 127.252 149.112C127.287 149.239 127.295 149.373 127.277 149.503C126.863 153.444 125.737 163.924 113.269 172.285C106.166 177.053 97.639 178.212 90.9995 178.212Z" fill="#47B4EB"/>
<path d="M95.801 151.49C89.7434 151.666 83.7674 150.06 78.6145 146.871C78.4978 146.803 78.3962 146.712 78.3159 146.603C78.2357 146.494 78.1784 146.37 78.1477 146.239C78.1169 146.107 78.1133 145.971 78.1371 145.838C78.1608 145.705 78.2115 145.578 78.2859 145.466C78.3603 145.353 78.4569 145.256 78.5698 145.182C78.6828 145.108 78.8096 145.058 78.9427 145.034C79.0757 145.011 79.2121 145.015 79.3436 145.046C79.475 145.077 79.5988 145.135 79.7072 145.215C83.0187 147.401 90.4364 150.795 102.407 148.973C111.862 147.533 115.968 144.487 118.965 141.424C119.057 141.33 119.167 141.256 119.288 141.205C119.409 141.154 119.539 141.127 119.671 141.126C119.802 141.126 119.933 141.151 120.054 141.2C120.176 141.25 120.287 141.323 120.38 141.416C120.474 141.508 120.548 141.618 120.599 141.739C120.65 141.86 120.677 141.99 120.678 142.122C120.679 142.253 120.653 142.383 120.604 142.505C120.554 142.627 120.481 142.738 120.389 142.831C117.077 146.142 112.739 149.454 102.705 150.96C100.421 151.311 98.1126 151.488 95.801 151.49Z" fill="#47B4EB"/>
<path d="M106.348 132.119C104.302 132.109 102.265 131.837 100.288 131.308C97.8482 130.772 95.556 129.707 93.5732 128.188C91.5905 126.669 89.9657 124.733 88.8137 122.517C88.7538 122.398 88.7179 122.269 88.7079 122.137C88.698 122.004 88.7142 121.871 88.7557 121.745C88.7973 121.619 88.8632 121.502 88.9499 121.402C89.0366 121.301 89.1422 121.219 89.2608 121.159C89.378 121.099 89.5059 121.064 89.6371 121.054C89.7682 121.044 89.9 121.061 90.0247 121.102C90.1495 121.144 90.2648 121.21 90.3638 121.296C90.4629 121.383 90.5438 121.488 90.6019 121.606C91.6153 123.576 93.0551 125.295 94.8166 126.638C96.5781 127.981 98.6169 128.915 100.785 129.371C103.572 130.154 106.496 130.322 109.354 129.865C112.213 129.408 114.938 128.335 117.342 126.722C117.451 126.645 117.574 126.592 117.704 126.565C117.834 126.537 117.968 126.537 118.098 126.563C118.228 126.59 118.352 126.642 118.461 126.718C118.57 126.794 118.663 126.891 118.733 127.003C118.807 127.113 118.859 127.236 118.885 127.365C118.911 127.495 118.911 127.628 118.884 127.758C118.858 127.887 118.806 128.01 118.732 128.12C118.658 128.229 118.562 128.322 118.451 128.394C114.876 130.808 110.663 132.105 106.348 132.119Z" fill="#47B4EB"/>
<path opacity="0.1" d="M122.409 195.53C115.091 194.851 105.852 192.782 97.9868 180.63C90.122 168.477 87.5888 143.13 94.8243 127.865C99.5929 117.815 109.113 108.61 115.985 111.689C112.922 108.825 107.259 109.851 103.832 111.822C98.6656 114.802 78.0186 127.633 79.2107 161.192C80.4029 194.752 104.676 205.265 109.312 207.55C115.98 208.884 122.895 208.166 129.146 205.491C135.398 202.816 140.692 198.31 144.331 192.567C151.98 181.275 150.325 170.431 146.665 163.577C152.394 181.524 133.37 196.524 122.409 195.53Z" fill="black"/>
<path d="M147.443 182.053C147.443 182.053 138.8 191.573 138.734 200.712C138.683 201.887 138.87 203.059 139.284 204.16C139.698 205.26 140.331 206.265 141.144 207.114C141.957 207.963 142.933 208.639 144.014 209.101C145.096 209.562 146.259 209.8 147.435 209.8C148.61 209.8 149.774 209.562 150.855 209.101C151.936 208.639 152.913 207.963 153.726 207.114C154.539 206.265 155.172 205.26 155.586 204.16C156 203.059 156.187 201.887 156.136 200.712C156.069 191.573 147.443 182.053 147.443 182.053Z" fill="url(#paint0_radial_358_1222)"/>
<path d="M433.058 40.0494L326.33 101.622C325.742 102.001 325.252 102.513 324.901 103.118C324.55 103.722 324.347 104.401 324.31 105.099V172.218C324.349 172.914 324.552 173.59 324.903 174.191C325.254 174.793 325.743 175.303 326.33 175.679L333.532 179.702C334.156 180.016 334.845 180.18 335.544 180.18C336.242 180.18 336.931 180.016 337.555 179.702L444.334 118.145C444.917 117.763 445.402 117.249 445.749 116.645C446.097 116.042 446.299 115.365 446.337 114.669V47.5329C446.298 46.8375 446.095 46.1613 445.744 45.5598C445.393 44.9582 444.904 44.4486 444.317 44.0726L437.115 40.0329C436.484 39.7194 435.789 39.5577 435.085 39.5606C434.38 39.5635 433.687 39.7309 433.058 40.0494Z" fill="#47B4EB"/>
<path d="M335.552 178.526V111.407C335.591 110.711 335.792 110.034 336.14 109.43C336.488 108.826 336.973 108.312 337.556 107.93L444.334 46.3738C445.443 45.7281 446.338 46.2579 446.338 47.5328V114.652C446.299 115.348 446.098 116.025 445.75 116.629C445.402 117.233 444.917 117.746 444.334 118.129L337.556 179.635C336.446 180.331 335.552 179.801 335.552 178.526Z" fill="#47B4EB"/>
<path opacity="0.2" d="M337.555 179.635C336.933 179.954 336.243 180.12 335.544 180.12C334.844 180.12 334.155 179.954 333.532 179.635L326.33 175.579C325.743 175.208 325.253 174.701 324.902 174.102C324.55 173.503 324.347 172.829 324.31 172.135V105.132C324.335 104.402 324.558 103.692 324.955 103.079L336.148 109.47C335.776 110.061 335.57 110.742 335.552 111.44V178.559C335.552 179.635 336.38 180.38 337.555 179.635Z" fill="black"/>
<path opacity="0.4" d="M446.304 47.1852C446.155 46.1753 445.327 45.811 444.317 46.3905L337.572 107.947C336.978 108.321 336.488 108.839 336.148 109.453L324.938 103.063C325.273 102.477 325.752 101.987 326.329 101.639L433.058 40.0495C433.683 39.7388 434.372 39.5771 435.07 39.5771C435.768 39.5771 436.456 39.7388 437.082 40.0495L444.284 44.0892C444.824 44.4289 445.285 44.8815 445.633 45.4159C445.982 45.9504 446.211 46.554 446.304 47.1852Z" fill="white"/>
<path d="M324.31 128.94L308.15 145.381C307.964 145.57 307.824 145.797 307.737 146.047C307.65 146.297 307.62 146.563 307.649 146.825C307.677 147.088 307.764 147.342 307.902 147.567C308.04 147.792 308.226 147.984 308.448 148.129C308.779 148.361 319.64 154.57 319.64 154.57L335.552 135.414L324.31 128.94Z" fill="#47B4EB"/>
<path opacity="0.1" d="M324.31 128.94L308.15 145.381C307.964 145.57 307.824 145.797 307.737 146.047C307.65 146.297 307.62 146.563 307.649 146.825C307.677 147.088 307.764 147.342 307.902 147.567C308.04 147.792 308.226 147.984 308.448 148.129C308.779 148.361 319.64 154.57 319.64 154.57L335.552 135.414L324.31 128.94Z" fill="black"/>
<path d="M335.552 135.414L319.392 151.854C319.134 152.122 318.966 152.462 318.911 152.829C318.856 153.196 318.916 153.571 319.083 153.902C319.251 154.233 319.517 154.504 319.845 154.677C320.173 154.85 320.547 154.917 320.915 154.868L335.552 152.748C337.125 152.748 337.125 135.414 335.552 135.414Z" fill="#47B4EB"/>
<path d="M348.616 129.967C348.689 128.058 348.949 126.162 349.394 124.305C349.84 122.454 350.496 120.66 351.348 118.957C352.179 117.291 353.213 115.733 354.427 114.321C355.604 112.932 357.017 111.761 358.6 110.861C359.84 110.05 361.275 109.587 362.756 109.52C363.88 109.484 364.978 109.868 365.835 110.596C366.758 111.43 367.434 112.501 367.789 113.692C368.285 115.228 368.547 116.83 368.567 118.444C368.567 119.818 368.567 121.291 368.567 122.831C368.567 124.371 368.567 125.828 368.567 127.202C368.511 129.106 368.25 130.999 367.789 132.848C367.34 134.708 366.685 136.513 365.835 138.228C365.016 139.902 363.981 141.46 362.756 142.864C361.569 144.233 360.165 145.397 358.6 146.308C357.349 147.115 355.913 147.588 354.427 147.682C353.303 147.718 352.205 147.334 351.348 146.606C350.428 145.75 349.754 144.664 349.394 143.46C348.914 141.926 348.652 140.332 348.616 138.725C348.616 137.401 348.616 135.977 348.616 134.421C348.616 132.864 348.616 131.424 348.616 129.967ZM362.656 130.364C362.656 129.768 362.656 129.106 362.656 128.361C362.656 127.616 362.656 126.887 362.656 126.126C362.656 125.364 362.656 124.652 362.656 123.957C362.656 123.262 362.656 122.649 362.656 122.103C362.636 121.401 362.525 120.706 362.325 120.033C362.188 119.521 361.92 119.053 361.547 118.675C361.217 118.359 360.779 118.182 360.322 118.179C359.731 118.21 359.159 118.398 358.666 118.725C358.045 119.12 357.487 119.605 357.01 120.166C356.524 120.753 356.113 121.398 355.785 122.086C355.452 122.808 355.197 123.562 355.023 124.338C354.839 125.143 354.723 125.963 354.676 126.788C354.676 127.368 354.676 128.013 354.676 128.725C354.676 129.437 354.676 130.182 354.676 130.927C354.676 131.672 354.676 132.417 354.676 133.146C354.676 133.874 354.676 134.503 354.676 135.066C354.653 136.305 355.043 137.517 355.785 138.51C356.431 139.222 357.441 139.189 358.749 138.427C360.065 137.677 361.095 136.513 361.679 135.116C362.293 133.616 362.629 132.017 362.673 130.397L362.656 130.364Z" fill="white"/>
<path d="M388.652 113.841C388.652 114.321 388.652 114.95 388.652 115.712C388.652 116.473 388.652 117.119 388.652 117.632C388.599 119.265 388.36 120.887 387.94 122.467C387.519 124.069 386.93 125.623 386.185 127.102C385.452 128.538 384.546 129.878 383.486 131.092C382.478 132.261 381.28 133.252 379.943 134.023C378.882 134.697 377.67 135.096 376.416 135.182C375.436 135.219 374.474 134.908 373.7 134.304C372.897 133.607 372.292 132.71 371.945 131.705C371.487 130.407 371.252 129.041 371.25 127.665C371.25 127.185 371.25 126.573 371.25 125.794C371.25 125.016 371.25 124.387 371.25 123.874C371.279 122.247 371.502 120.63 371.912 119.056C372.337 117.45 372.937 115.896 373.7 114.42C374.437 112.967 375.349 111.611 376.416 110.38C377.418 109.207 378.61 108.211 379.943 107.433C381.007 106.759 382.228 106.372 383.486 106.308C384.467 106.286 385.425 106.602 386.201 107.202C387.016 107.889 387.624 108.789 387.956 109.801C388.399 111.103 388.634 112.466 388.652 113.841ZM377.062 124.106C377.032 124.549 377.096 124.993 377.25 125.41C377.404 125.827 377.644 126.206 377.956 126.523C378.469 126.937 379.164 126.887 380.009 126.39C380.902 125.856 381.621 125.074 382.079 124.139C382.61 123.071 382.909 121.903 382.956 120.712C382.956 120.182 382.956 119.619 382.956 119.056C382.956 118.493 382.956 117.897 382.956 117.4C382.978 116.959 382.912 116.518 382.762 116.103C382.611 115.688 382.379 115.307 382.079 114.983C381.763 114.787 381.393 114.695 381.023 114.719C380.652 114.742 380.297 114.881 380.009 115.116C379.121 115.651 378.407 116.433 377.956 117.367C377.412 118.437 377.107 119.612 377.062 120.811C377.062 121.324 377.062 121.887 377.062 122.467C377.062 123.046 376.962 123.642 376.995 124.106H377.062Z" fill="white"/>
<path d="M401.699 121.473C401.185 121.776 400.626 121.994 400.043 122.119C399.645 122.205 399.233 122.205 398.834 122.119C398.518 122.035 398.224 121.882 397.973 121.672C397.758 121.484 397.564 121.273 397.394 121.043V131.523C397.393 131.903 397.302 132.277 397.129 132.616C397.004 132.915 396.797 133.173 396.533 133.361L392.493 135.679C392.409 135.749 392.304 135.787 392.195 135.787C392.086 135.787 391.98 135.749 391.897 135.679C391.799 135.572 391.725 135.447 391.68 135.31C391.634 135.173 391.618 135.028 391.632 134.884V102.5C391.631 102.125 391.722 101.756 391.897 101.424C392.013 101.119 392.221 100.859 392.493 100.679L396.384 98.5099C396.467 98.4319 396.576 98.3884 396.69 98.3884C396.804 98.3884 396.914 98.4319 396.997 98.5099C397.181 98.7316 397.27 99.0173 397.245 99.3046V100.43L397.874 99.0397C398.098 98.5317 398.376 98.0489 398.702 97.5993C399.066 97.1036 399.471 96.6385 399.911 96.2085C400.452 95.7067 401.052 95.273 401.699 94.9172C402.518 94.401 403.449 94.0888 404.414 94.0066C404.82 93.9777 405.228 94.0319 405.612 94.1656C405.996 94.2994 406.349 94.5101 406.649 94.7847C407.388 95.5058 407.924 96.4077 408.206 97.4006C408.65 98.911 408.867 100.479 408.852 102.053C408.852 102.533 408.852 103.195 408.852 104.023C408.852 104.851 408.852 105.53 408.852 106.043C408.835 107.86 408.619 109.67 408.206 111.44C407.851 112.967 407.329 114.449 406.649 115.861C406.062 117.063 405.309 118.177 404.414 119.172C403.635 120.077 402.719 120.854 401.699 121.473ZM403.139 108.725C403.206 107.805 403.206 106.881 403.139 105.96C403.135 105.052 402.877 104.163 402.394 103.394C401.964 102.776 401.252 102.776 400.258 103.394C399.785 103.657 399.369 104.012 399.033 104.437C398.698 104.872 398.414 105.344 398.189 105.844C397.97 106.348 397.793 106.868 397.659 107.401C397.533 107.945 397.45 108.499 397.41 109.056C397.41 109.569 397.41 110.165 397.41 110.811C397.383 111.363 397.383 111.915 397.41 112.467C397.447 112.905 397.53 113.338 397.659 113.758C397.774 114.104 397.954 114.424 398.189 114.702C398.408 114.941 398.71 115.089 399.033 115.116C399.467 115.125 399.894 115.004 400.258 114.768C401.236 114.197 401.99 113.309 402.394 112.252C402.832 111.124 403.084 109.933 403.139 108.725Z" fill="white"/>
<path d="M421.336 101.953C421.336 101.589 421.253 101.357 421.087 101.258C420.827 101.152 420.536 101.152 420.276 101.258C419.758 101.385 419.25 101.546 418.753 101.738C418.124 101.97 417.345 102.218 416.402 102.5C415.786 102.767 415.107 102.853 414.444 102.747C413.781 102.641 413.162 102.349 412.66 101.904C411.641 100.579 411.172 98.9128 411.352 97.2515C411.359 96.088 411.543 94.9324 411.898 93.8243C412.273 92.6641 412.784 91.5525 413.421 90.5131C414.077 89.4003 414.867 88.3717 415.772 87.4502C416.68 86.5194 417.71 85.7172 418.836 85.0661C419.773 84.4877 420.813 84.0943 421.899 83.9071C422.712 83.7645 423.549 83.8271 424.333 84.0892C425.016 84.3082 425.602 84.7592 425.988 85.3641C426.392 85.9928 426.615 86.72 426.634 87.4667C426.66 87.8401 426.579 88.2132 426.402 88.5429C426.269 88.8513 426.051 89.1154 425.773 89.3045L421.965 91.4899C421.733 91.6389 421.551 91.6555 421.418 91.5727L420.922 91.3243C420.682 91.2204 420.42 91.1804 420.16 91.2084C419.697 91.2806 419.255 91.456 418.869 91.7217C418.397 91.981 417.981 92.3297 417.643 92.7482C417.321 93.1205 417.145 93.5969 417.147 94.0892C417.123 94.3468 417.174 94.6058 417.296 94.8343C417.406 94.9667 417.621 94.9998 417.941 94.9336C418.398 94.8274 418.846 94.6891 419.283 94.5197L421.551 93.7581C423.488 93.129 424.862 93.3277 425.79 94.3376C426.758 95.6179 427.229 97.2064 427.114 98.8078C427.105 99.9752 426.926 101.135 426.584 102.251C426.178 103.48 425.622 104.653 424.929 105.745C424.21 106.949 423.349 108.06 422.362 109.056C421.342 110.071 420.196 110.95 418.951 111.672C417.939 112.304 416.815 112.736 415.64 112.947C414.813 113.079 413.965 112.981 413.189 112.665C412.552 112.368 412.02 111.883 411.666 111.275C411.311 110.641 411.112 109.931 411.087 109.205C411.061 108.832 411.141 108.459 411.318 108.129C411.456 107.823 411.673 107.56 411.948 107.367L415.905 105.083C416.153 104.95 416.319 104.934 416.418 105.083C416.546 105.211 416.684 105.327 416.832 105.43C417.06 105.555 417.318 105.612 417.577 105.596C418.093 105.517 418.585 105.325 419.018 105.033C419.64 104.673 420.199 104.215 420.673 103.675C421.113 103.212 421.351 102.592 421.336 101.953Z" fill="white"/>
<path d="M435.757 89.4038C435.754 89.7782 435.663 90.1468 435.492 90.4799C435.376 90.7846 435.168 91.0451 434.896 91.225L430.856 93.5428C430.776 93.6197 430.669 93.6627 430.558 93.6627C430.447 93.6627 430.34 93.6197 430.26 93.5428C430.163 93.4364 430.089 93.3107 430.043 93.1737C429.997 93.0368 429.981 92.8918 429.995 92.7481V71.5064C429.996 71.1264 430.087 70.7521 430.26 70.4137C430.376 70.1091 430.584 69.8485 430.856 69.6687L434.896 67.3508C434.976 67.2739 435.083 67.231 435.194 67.231C435.305 67.231 435.412 67.2739 435.492 67.3508C435.59 67.4572 435.664 67.583 435.709 67.7199C435.755 67.8568 435.771 68.0019 435.757 68.1455V89.4038ZM435.757 99.9832C435.758 100.358 435.667 100.728 435.492 101.059C435.376 101.364 435.168 101.625 434.896 101.804L430.856 104.139C430.774 104.212 430.668 104.253 430.558 104.253C430.448 104.253 430.342 104.212 430.26 104.139C430.162 104.036 430.088 103.913 430.042 103.779C429.996 103.645 429.98 103.502 429.995 103.361V98.3938C429.998 98.0194 430.089 97.6508 430.26 97.3177C430.376 97.0131 430.584 96.7525 430.856 96.5726L434.896 94.2382C434.978 94.1649 435.084 94.1244 435.194 94.1244C435.304 94.1244 435.41 94.1649 435.492 94.2382C435.59 94.3446 435.664 94.4704 435.709 94.6073C435.755 94.7442 435.771 94.8893 435.757 95.0329V99.9832Z" fill="white"/>
<defs>
<radialGradient id="paint0_radial_358_1222" cx="0" cy="0" r="1" gradientUnits="userSpaceOnUse" gradientTransform="translate(147.435 182.053) rotate(72.574) scale(29.0818 18.2562)">
<stop stop-color="white" stop-opacity="0"/>
<stop offset="0.779677" stop-color="white"/>
</radialGradient>
</defs>
</svg>
