<svg width="24" height="24" viewBox="0 0 24 24" fill="none" xmlns="http://www.w3.org/2000/svg">
<path d="M3 11.25L2.25 11.25L2.25 12.75L3 12.75L3 11.25ZM20 12.75L20.75 12.75L20.75 11.25L20 11.25L20 12.75ZM15.4801 6.42383L14.904 5.9437L13.9437 7.09603L14.5199 7.57617L15.4801 6.42383ZM21 12L21.4801 12.5762L22.1715 12L21.4801 11.4238L21 12ZM14.5199 16.4238L13.9437 16.904L14.904 18.0563L15.4801 17.5762L14.5199 16.4238ZM3 12.75L20 12.75L20 11.25L3 11.25L3 12.75ZM14.5199 7.57617L20.5199 12.5762L21.4801 11.4238L15.4801 6.42383L14.5199 7.57617ZM20.5199 11.4238L14.5199 16.4238L15.4801 17.5762L21.4801 12.5762L20.5199 11.4238Z" fill="#CCA3A3"/>
</svg>
