<svg width="21" height="13" viewBox="0 0 21 13" fill="none" xmlns="http://www.w3.org/2000/svg">
<path d="M1 5.75H0.25L0.25 7.25H1L1 5.75ZM18 7.25H18.75V5.75H18V7.25ZM13.4801 0.923834L12.904 0.443696L11.9437 1.59603L12.5199 2.07617L13.4801 0.923834ZM19 6.5L19.4801 7.07617L20.1715 6.5L19.4801 5.92383L19 6.5ZM12.5199 10.9238L11.9437 11.404L12.904 12.5563L13.4801 12.0762L12.5199 10.9238ZM1 7.25L18 7.25V5.75L1 5.75L1 7.25ZM12.5199 2.07617L18.5199 7.07617L19.4801 5.92383L13.4801 0.923834L12.5199 2.07617ZM18.5199 5.92383L12.5199 10.9238L13.4801 12.0762L19.4801 7.07617L18.5199 5.92383Z" fill="#CCA3A3"/>
</svg>
