<svg xmlns="http://www.w3.org/2000/svg" version="1.1" xmlns:xlink="http://www.w3.org/1999/xlink" xmlns:svgjs="http://svgjs.com/svgjs" width="61" height="74"><svg width="61" height="74" viewBox="0 0 61 74" fill="none" xmlns="http://www.w3.org/2000/svg">
<path d="M52.0134 8.97771C57.7274 14.726 60.9375 22.5224 60.9375 30.6518C60.9375 38.7812 57.7274 46.5776 52.0134 52.3259L30.4687 74L8.9241 52.3259C3.2101 46.5776 0 38.7812 0 30.6518C0 22.5224 3.2101 14.726 8.9241 8.97771C14.6381 3.22938 22.3879 0 30.4688 0C38.5496 0 46.2994 3.22938 52.0134 8.97771Z" fill="#FAFAFA"></path>
<path d="M6.09375 30.6177C6.09375 37.0939 8.66183 43.3049 13.233 47.8844L30.4687 65.151L47.7045 47.8843C52.2757 43.3049 54.8437 37.0939 54.8437 30.6177H60.9375C60.9375 38.713 57.7274 46.4768 52.0134 52.201L30.4687 73.7844L8.9241 52.201C3.2101 46.4768 1.64373e-06 38.713 0 30.6177H6.09375Z" fill="#47B4EB"></path>
<path fill-rule="evenodd" clip-rule="evenodd" d="M16.1384 37.0082C12.7325 33.5768 12.7325 28.0135 16.1384 24.5821L30.3491 10.2651L34.6391 14.5872L20.4284 28.9042C19.3918 29.9486 19.3918 31.6418 20.4284 32.6861C21.465 33.7304 23.1456 33.7304 24.1822 32.6861L32.226 24.5821C35.6319 21.1508 41.1539 21.1508 44.5598 24.5821C47.9657 28.0135 47.9657 33.5768 44.5598 37.0082L30.3491 51.3252L26.0591 47.0031L40.2698 32.6861C41.3064 31.6418 41.3064 29.9486 40.2698 28.9042C39.2332 27.8599 37.5526 27.8599 36.516 28.9042L28.4722 37.0082C25.0663 40.4396 19.5443 40.4396 16.1384 37.0082Z" fill="#47B4EB"></path>
</svg><style>@media (prefers-color-scheme: light) { :root { filter: none; } }
</style></svg>