<svg xmlns="http://www.w3.org/2000/svg" version="1.1" xmlns:xlink="http://www.w3.org/1999/xlink" xmlns:svgjs="http://svgjs.com/svgjs" width="50" height="60"><svg width="50" height="60" viewBox="0 0 50 60" fill="none" xmlns="http://www.w3.org/2000/svg">
<path d="M42.6777 7.27923C47.3661 11.94 50 18.2614 50 24.8528C50 31.4442 47.3661 37.7656 42.6777 42.4264L25 60L7.32234 42.4264C2.63393 37.7656 0 31.4442 0 24.8528C0 18.2614 2.63393 11.94 7.32234 7.27923C12.0107 2.61842 18.3696 0 25 0C31.6304 0 37.9893 2.61842 42.6777 7.27923Z" fill="#FAFAFA"></path>
<path d="M5.00049 24.8252C5.00049 30.0762 7.10763 35.1122 10.8584 38.8252L25.0005 52.8252L39.1426 38.8252C42.8934 35.1122 45.0005 30.0762 45.0005 24.8252H50.0005C50.0005 31.389 47.3666 37.6839 42.6782 42.3252L25.0005 59.8252L7.32282 42.3252C2.63441 37.6839 0.00048963 31.389 0.000488281 24.8252H5.00049Z" fill="#47B4EB"></path>
<path fill-rule="evenodd" clip-rule="evenodd" d="M13.2423 30.0068C10.4477 27.2246 10.4477 22.7138 13.2423 19.9316L24.9024 8.32324L28.4224 11.8277L16.7623 23.436C15.9118 24.2828 15.9118 25.6556 16.7623 26.5024C17.6128 27.3491 18.9918 27.3491 19.8423 26.5024L26.4424 19.9316C29.2369 17.1494 33.7678 17.1494 36.5624 19.9316C39.357 22.7138 39.357 27.2246 36.5624 30.0068L24.9024 41.6152L21.3823 38.1108L33.0424 26.5024C33.8929 25.6556 33.8929 24.2828 33.0424 23.436C32.1919 22.5893 30.8129 22.5893 29.9624 23.436L23.3623 30.0068C20.5678 32.789 16.0369 32.789 13.2423 30.0068Z" fill="#47B4EB"></path>
</svg><style>@media (prefers-color-scheme: light) { :root { filter: none; } }
</style></svg>