<svg width="312" height="74" viewBox="0 0 312 74" fill="none" xmlns="http://www.w3.org/2000/svg">
<path d="M52.0134 8.97771C57.7274 14.726 60.9375 22.5224 60.9375 30.6518C60.9375 38.7812 57.7274 46.5776 52.0134 52.3259L30.4687 74L8.9241 52.3259C3.2101 46.5776 0 38.7812 0 30.6518C0 22.5224 3.2101 14.726 8.9241 8.97771C14.6381 3.22938 22.3879 0 30.4688 0C38.5496 0 46.2994 3.22938 52.0134 8.97771Z" fill="#FAFAFA"/>
<path d="M6.09375 30.6177C6.09375 37.0939 8.66183 43.3049 13.233 47.8844L30.4687 65.151L47.7045 47.8843C52.2757 43.3049 54.8438 37.0939 54.8438 30.6177H60.9375C60.9375 38.713 57.7274 46.4768 52.0134 52.201L30.4687 73.7844L8.9241 52.201C3.2101 46.4768 1.64373e-06 38.713 0 30.6177H6.09375Z" fill="#47B4EB"/>
<path fill-rule="evenodd" clip-rule="evenodd" d="M16.1384 37.0082C12.7325 33.5768 12.7325 28.0135 16.1384 24.5821L30.3491 10.2651L34.6391 14.5872L20.4284 28.9042C19.3918 29.9486 19.3918 31.6418 20.4284 32.6861C21.465 33.7304 23.1456 33.7304 24.1822 32.6861L32.226 24.5821C35.6319 21.1508 41.1539 21.1508 44.5598 24.5821C47.9657 28.0135 47.9657 33.5768 44.5598 37.0082L30.3491 51.3252L26.0591 47.0031L40.2698 32.6861C41.3064 31.6418 41.3064 29.9486 40.2698 28.9042C39.2332 27.8599 37.5526 27.8599 36.516 28.9042L28.4722 37.0082C25.0663 40.4396 19.5443 40.4396 16.1384 37.0082Z" fill="#47B4EB"/>
<path d="M90.8633 15.1492L95.9361 27.5386L100.707 15.1492H105.9L95.7549 38.1368L85.6094 15.1492H90.8633Z" fill="#141B1F"/>
<path d="M110.832 37.48C109.604 37.48 108.487 37.2412 107.481 36.7635C106.494 36.266 105.709 35.5097 105.125 34.4946C104.542 33.4796 104.25 32.1859 104.25 30.6136C104.25 29.1408 104.552 27.867 105.156 26.7923C105.759 25.7175 106.555 24.8915 107.541 24.3144C108.527 23.7173 109.574 23.4187 110.681 23.4187C111.99 23.4187 112.976 23.6277 113.64 24.0457C114.325 24.4636 114.868 24.9214 115.271 25.419L115.543 24.0755H119.468V37.1218H115.241V35.5097C115.039 35.7087 114.737 35.9674 114.335 36.2859C113.952 36.6043 113.469 36.8829 112.885 37.1218C112.302 37.3606 111.617 37.48 110.832 37.48ZM112.04 34.0767C113.509 34.0767 114.576 33.4199 115.241 32.1063V28.9119C114.999 28.275 114.576 27.7675 113.972 27.3893C113.389 27.0112 112.694 26.8221 111.889 26.8221C110.983 26.8221 110.198 27.1605 109.534 27.8372C108.87 28.4939 108.537 29.3498 108.537 30.4046C108.537 31.1012 108.698 31.7281 109.02 32.2854C109.343 32.8427 109.765 33.2806 110.289 33.599C110.832 33.9174 111.416 34.0767 112.04 34.0767Z" fill="#141B1F"/>
<path d="M124.881 43.3911L128.051 36.4351L121.952 24.0755H126.692L130.165 31.7779L133.667 24.0755H137.472L128.957 43.3911H124.881Z" fill="#141B1F"/>
<path d="M143.788 24.0755L144.09 26.1653C144.553 25.3493 145.207 24.6925 146.053 24.195C146.898 23.6974 147.925 23.4486 149.133 23.4486C150.381 23.4486 151.418 23.8168 152.243 24.5532C153.088 25.2697 153.521 26.2051 153.541 27.3595V37.1218H149.314V28.9119C149.294 28.3347 149.133 27.877 148.831 27.5386C148.549 27.1804 148.066 27.0012 147.381 27.0012C146.395 27.0012 145.61 27.459 145.026 28.3745C144.463 29.2701 144.181 30.4146 144.181 31.8077V37.1218H139.953V24.0755H143.788Z" fill="#141B1F"/>
<path d="M164.374 37.48C162.763 37.48 161.394 37.1815 160.267 36.5844C159.16 35.9873 158.315 35.1614 157.731 34.1065C157.147 33.0517 156.855 31.8376 156.855 30.4643C156.855 29.1507 157.197 27.9665 157.882 26.9117C158.566 25.8568 159.482 25.0209 160.63 24.4039C161.777 23.767 163.055 23.4486 164.464 23.4486C166.357 23.4486 167.907 23.9959 169.114 25.0906C170.342 26.1653 171.137 27.7277 171.5 29.7777L161.837 32.8228C162.482 33.5592 163.357 33.9274 164.464 33.9274C164.927 33.9274 165.37 33.8478 165.793 33.6886C166.236 33.5293 166.669 33.3204 167.091 33.0616L168.963 36.1664C168.259 36.5645 167.494 36.8829 166.669 37.1218C165.863 37.3606 165.098 37.48 164.374 37.48ZM161.022 30.2255C161.022 30.325 161.022 30.4146 161.022 30.4942L166.82 28.5537C166.638 28.0561 166.346 27.6282 165.944 27.2699C165.541 26.8918 164.937 26.7027 164.132 26.7027C163.186 26.7027 162.431 27.0211 161.868 27.658C161.304 28.2949 161.022 29.1507 161.022 30.2255Z" fill="#141B1F"/>
<path d="M178.376 24.0755L178.708 27.0609C179.091 26.3046 179.614 25.6578 180.279 25.1204C180.943 24.5632 181.597 24.1452 182.241 23.8666C182.885 23.568 183.379 23.4187 183.721 23.4187L183.509 27.5983C182.523 27.4789 181.678 27.6381 180.973 28.076C180.268 28.5138 179.725 29.091 179.342 29.8075C178.96 30.524 178.769 31.2604 178.769 32.0167V37.1218H174.572V24.0755H178.376Z" fill="#141B1F"/>
<path d="M209.337 20.4632C208.491 20.0054 207.626 19.6273 206.74 19.3287C205.874 19.0302 205.059 18.8809 204.294 18.8809C203.348 18.8809 202.603 19.07 202.06 19.4482C201.516 19.8263 201.245 20.3935 201.245 21.1498C201.245 21.6673 201.446 22.135 201.848 22.553C202.271 22.951 202.805 23.3093 203.449 23.6277C204.113 23.9462 204.797 24.2348 205.502 24.4935C206.368 24.8119 207.203 25.2199 208.008 25.7175C208.813 26.1952 209.478 26.8619 210.001 27.7177C210.525 28.5537 210.786 29.6682 210.786 31.0614C210.786 32.1759 210.494 33.2109 209.911 34.1662C209.327 35.1216 208.471 35.8978 207.344 36.4948C206.217 37.072 204.828 37.3606 203.177 37.3606C201.909 37.3606 200.61 37.1715 199.282 36.7934C197.973 36.4152 196.735 35.8182 195.568 35.0021L197.5 31.6286C198.265 32.1859 199.141 32.6437 200.127 33.0019C201.114 33.3602 201.999 33.5393 202.784 33.5393C203.308 33.5393 203.831 33.4696 204.355 33.3303C204.898 33.1711 205.341 32.9123 205.683 32.5541C206.046 32.1959 206.227 31.6983 206.227 31.0614C206.227 30.4046 205.905 29.8374 205.26 29.3597C204.636 28.8621 203.882 28.4442 202.996 28.1058C202.311 27.8471 201.607 27.5486 200.882 27.2102C200.158 26.8719 199.473 26.4639 198.829 25.9862C198.205 25.4886 197.692 24.8816 197.289 24.1651C196.907 23.4287 196.715 22.5331 196.715 21.4782C196.715 20.2045 196.997 19.0999 197.561 18.1644C198.145 17.229 198.96 16.4926 200.007 15.9552C201.053 15.3979 202.261 15.0895 203.63 15.0297C205.422 15.0297 206.871 15.2387 207.978 15.6567C209.105 16.0746 210.112 16.5722 210.998 17.1494L209.337 20.4632Z" fill="#141B1F"/>
<path d="M225.582 35.9575C224.998 36.4152 224.264 36.7834 223.378 37.0621C222.512 37.3407 221.657 37.48 220.811 37.48C218.557 37.48 216.745 36.873 215.376 35.6589C214.027 34.4449 213.353 32.7531 213.353 30.5837C213.353 29.1308 213.685 27.8969 214.349 26.8818C215.014 25.8469 215.879 25.0607 216.946 24.5233C218.033 23.986 219.171 23.7173 220.358 23.7173C221.546 23.7173 222.573 23.8765 223.438 24.195C224.324 24.5134 225.079 24.9314 225.703 25.4488L223.65 28.1357C223.368 27.9168 222.975 27.6978 222.472 27.4789C221.989 27.2401 221.415 27.1207 220.751 27.1207C219.885 27.1207 219.14 27.4491 218.516 28.1058C217.892 28.7427 217.58 29.5687 217.58 30.5837C217.58 31.559 217.902 32.3849 218.547 33.0616C219.211 33.7383 220.087 34.0767 221.174 34.0767C222.1 34.0767 222.864 33.8279 223.468 33.3303L225.582 35.9575Z" fill="#141B1F"/>
<path d="M228.828 37.1218V13.5669H232.965V26.1355C233.428 25.3394 234.082 24.6925 234.928 24.195C235.773 23.6974 236.8 23.4486 238.008 23.4486C239.256 23.4486 240.293 23.8168 241.118 24.5532C241.963 25.2697 242.396 26.2051 242.416 27.3595V37.1218H238.189V28.9119C238.169 28.3347 238.008 27.877 237.706 27.5386C237.424 27.1804 236.941 27.0012 236.256 27.0012C235.27 27.0012 234.485 27.459 233.901 28.3745C233.338 29.2701 233.056 30.4146 233.056 31.8077V37.1218H228.828Z" fill="#141B1F"/>
<path d="M245.73 30.4345C245.73 29.101 246.042 27.9068 246.666 26.852C247.31 25.7971 248.206 24.9712 249.354 24.3741C250.501 23.7571 251.82 23.4486 253.309 23.4486C254.819 23.4486 256.127 23.7571 257.235 24.3741C258.342 24.9712 259.187 25.7971 259.771 26.852C260.375 27.9068 260.677 29.101 260.677 30.4345C260.677 31.7679 260.375 32.9721 259.771 34.0468C259.187 35.1017 258.342 35.9376 257.235 36.5546C256.127 37.1715 254.799 37.48 253.249 37.48C251.799 37.48 250.501 37.2014 249.354 36.6441C248.226 36.0868 247.341 35.2808 246.696 34.2259C246.052 33.1711 245.73 31.9073 245.73 30.4345ZM249.988 30.4643C249.988 31.4993 250.29 32.365 250.894 33.0616C251.497 33.7383 252.262 34.0767 253.188 34.0767C254.175 34.0767 254.96 33.7383 255.544 33.0616C256.127 32.365 256.419 31.4993 256.419 30.4643C256.419 29.4294 256.127 28.5736 255.544 27.8969C254.96 27.2003 254.175 26.852 253.188 26.852C252.262 26.852 251.497 27.2003 250.894 27.8969C250.29 28.5736 249.988 29.4294 249.988 30.4643Z" fill="#141B1F"/>
<path d="M262.98 30.4345C262.98 29.101 263.292 27.9068 263.916 26.852C264.561 25.7971 265.456 24.9712 266.604 24.3741C267.751 23.7571 269.07 23.4486 270.559 23.4486C272.069 23.4486 273.377 23.7571 274.485 24.3741C275.592 24.9712 276.437 25.7971 277.021 26.852C277.625 27.9068 277.927 29.101 277.927 30.4345C277.927 31.7679 277.625 32.9721 277.021 34.0468C276.437 35.1017 275.592 35.9376 274.485 36.5546C273.377 37.1715 272.049 37.48 270.499 37.48C269.05 37.48 267.751 37.2014 266.604 36.6441C265.476 36.0868 264.591 35.2808 263.947 34.2259C263.302 33.1711 262.98 31.9073 262.98 30.4345ZM267.238 30.4643C267.238 31.4993 267.54 32.365 268.144 33.0616C268.748 33.7383 269.513 34.0767 270.439 34.0767C271.425 34.0767 272.21 33.7383 272.794 33.0616C273.377 32.365 273.669 31.4993 273.669 30.4643C273.669 29.4294 273.377 28.5736 272.794 27.8969C272.21 27.2003 271.425 26.852 270.439 26.852C269.513 26.852 268.748 27.2003 268.144 27.8969C267.54 28.5736 267.238 29.4294 267.238 30.4643Z" fill="#141B1F"/>
<path d="M281.257 13.5669H285.484V37.1218H281.257V13.5669Z" fill="#141B1F"/>
<path d="M87.7363 52.2382H88.9316V58.9334H92.599V60.1507H87.7363V52.2382Z" fill="#29363D"/>
<path d="M94.4162 60.1507L97.7056 51.9121H97.7771L101.067 60.1507H99.6976L99.0132 58.2922H96.306L95.591 60.1507H94.4162ZM96.7249 57.2053H98.6148L97.6852 54.7163L96.7249 57.2053Z" fill="#29363D"/>
<path d="M109.895 60.4333L104.532 54.9011L104.563 60.1507H103.357V51.9665H103.418L108.761 57.5748L108.741 52.2382H109.926V60.4333H109.895Z" fill="#29363D"/>
<path d="M118.913 59.4225C118.784 59.5529 118.579 59.6797 118.3 59.8029C118.021 59.9261 117.714 60.0312 117.381 60.1181C117.054 60.1978 116.744 60.2377 116.451 60.2377C115.654 60.2377 114.963 60.071 114.377 59.7377C113.791 59.3972 113.339 58.937 113.019 58.3574C112.698 57.7777 112.538 57.1183 112.538 56.3792C112.538 55.6909 112.641 55.0822 112.845 54.5533C113.049 54.0243 113.328 53.5823 113.683 53.2272C114.037 52.8722 114.442 52.6041 114.898 52.4229C115.361 52.2418 115.848 52.1512 116.359 52.1512C116.809 52.1512 117.224 52.2056 117.605 52.3143C117.987 52.4229 118.317 52.5606 118.596 52.7273L118.208 53.9011C118.072 53.8214 117.902 53.7453 117.697 53.6729C117.5 53.5932 117.295 53.5316 117.084 53.4881C116.873 53.4446 116.683 53.4229 116.512 53.4229C115.668 53.4229 114.997 53.6729 114.5 54.1728C114.009 54.6728 113.764 55.372 113.764 56.2705C113.764 56.814 113.88 57.2886 114.112 57.6944C114.343 58.1001 114.66 58.4153 115.062 58.64C115.47 58.8646 115.944 58.9769 116.482 58.9769C116.713 58.9769 116.938 58.9552 117.156 58.9117C117.374 58.8682 117.561 58.7994 117.718 58.7052V57.39H116.318V56.1727H118.913V59.4225Z" fill="#29363D"/>
<path d="M122.814 57.3031C122.814 57.6147 122.889 57.9009 123.039 58.1617C123.188 58.4153 123.389 58.6218 123.641 58.7812C123.9 58.9334 124.186 59.0095 124.499 59.0095C124.826 59.0095 125.119 58.9334 125.378 58.7812C125.637 58.6218 125.841 58.4153 125.991 58.1617C126.141 57.9009 126.216 57.6147 126.216 57.3031V52.2382H127.39V57.3357C127.39 57.9154 127.261 58.4226 127.002 58.8573C126.743 59.2921 126.396 59.6326 125.96 59.879C125.524 60.1181 125.037 60.2377 124.499 60.2377C123.961 60.2377 123.474 60.1181 123.039 59.879C122.61 59.6326 122.266 59.2921 122.007 58.8573C121.755 58.4226 121.629 57.9154 121.629 57.3357V52.2382H122.814V57.3031Z" fill="#29363D"/>
<path d="M129.409 60.1507L132.698 51.9121H132.77L136.059 60.1507H134.69L134.006 58.2922H131.299L130.583 60.1507H129.409ZM131.717 57.2053H133.607L132.678 54.7163L131.717 57.2053Z" fill="#29363D"/>
<path d="M143.975 59.4225C143.846 59.5529 143.641 59.6797 143.362 59.8029C143.083 59.9261 142.777 60.0312 142.443 60.1181C142.116 60.1978 141.806 60.2377 141.513 60.2377C140.716 60.2377 140.025 60.071 139.439 59.7377C138.854 59.3972 138.401 58.937 138.081 58.3574C137.761 57.7777 137.601 57.1183 137.601 56.3792C137.601 55.6909 137.703 55.0822 137.907 54.5533C138.111 54.0243 138.391 53.5823 138.745 53.2272C139.099 52.8722 139.504 52.6041 139.96 52.4229C140.424 52.2418 140.91 52.1512 141.421 52.1512C141.871 52.1512 142.286 52.2056 142.668 52.3143C143.049 52.4229 143.379 52.5606 143.658 52.7273L143.27 53.9011C143.134 53.8214 142.964 53.7453 142.759 53.6729C142.562 53.5932 142.358 53.5316 142.147 53.4881C141.935 53.4446 141.745 53.4229 141.574 53.4229C140.73 53.4229 140.059 53.6729 139.562 54.1728C139.072 54.6728 138.826 55.372 138.826 56.2705C138.826 56.814 138.942 57.2886 139.174 57.6944C139.405 58.1001 139.722 58.4153 140.124 58.64C140.532 58.8646 141.006 58.9769 141.544 58.9769C141.775 58.9769 142 58.9552 142.218 58.9117C142.436 58.8682 142.623 58.7994 142.78 58.7052V57.39H141.38V56.1727H143.975V59.4225Z" fill="#29363D"/>
<path d="M146.803 52.2382H151.738V53.4555H147.999V55.5641H151.329V56.7814H147.999V58.9334H151.881V60.1507H146.803V52.2382Z" fill="#29363D"/>
<path d="M164.359 59.5312C164.25 59.6109 164.087 59.7087 163.869 59.8247C163.658 59.9406 163.402 60.042 163.103 60.129C162.803 60.2087 162.476 60.2449 162.122 60.2377C161.543 60.2304 161.022 60.1217 160.559 59.9116C160.096 59.6942 159.701 59.4044 159.374 59.0421C159.054 58.6726 158.809 58.2523 158.638 57.7813C158.468 57.3031 158.383 56.7959 158.383 56.2597C158.383 55.6583 158.472 55.1076 158.649 54.6076C158.832 54.1076 159.084 53.6765 159.405 53.3142C159.731 52.9447 160.116 52.6584 160.559 52.4556C161.008 52.2527 161.502 52.1512 162.04 52.1512C162.51 52.1512 162.929 52.2201 163.297 52.3577C163.671 52.4882 163.985 52.6367 164.237 52.8034L163.767 53.9881C163.576 53.8504 163.338 53.7127 163.052 53.575C162.766 53.4374 162.442 53.3685 162.081 53.3685C161.638 53.3685 161.23 53.4953 160.855 53.749C160.487 53.9953 160.188 54.3322 159.956 54.7598C159.731 55.18 159.619 55.6546 159.619 56.1836C159.619 56.7343 159.721 57.2234 159.926 57.6509C160.137 58.0784 160.43 58.4153 160.804 58.6617C161.185 58.9008 161.635 59.0204 162.153 59.0204C162.541 59.0204 162.878 58.9588 163.164 58.8356C163.45 58.7052 163.682 58.5603 163.859 58.4008L164.359 59.5312Z" fill="#29363D"/>
<path d="M166.967 52.2382H171.901V53.4555H168.163V55.5641H171.493V56.7814H168.163V58.9334H172.044V60.1507H166.967V52.2382Z" fill="#29363D"/>
<path d="M181.251 60.4333L175.888 54.9011L175.918 60.1507H174.713V51.9665H174.774L180.117 57.5748L180.096 52.2382H181.282V60.4333H181.251Z" fill="#29363D"/>
<path d="M183.823 52.2382H188.798V53.4555H186.877V60.1507H185.692V53.4555H183.823V52.2382Z" fill="#29363D"/>
<path d="M191.331 52.2382H196.265V53.4555H192.526V55.5641H195.857V56.7814H192.526V58.9334H196.408V60.1507H191.331V52.2382Z" fill="#29363D"/>
<path d="M201.171 52.2382C201.723 52.2382 202.203 52.3396 202.611 52.5425C203.027 52.7381 203.347 53.028 203.572 53.412C203.803 53.7888 203.919 54.2453 203.919 54.7815C203.919 55.2307 203.827 55.6691 203.643 56.0966C203.459 56.5241 203.149 56.8575 202.714 57.0966L204.522 60.1507H203.143L201.467 57.4009C201.426 57.4009 201.385 57.4009 201.345 57.4009H200.272V60.1507H199.077V52.2382H201.171ZM201.334 56.1836C201.689 56.1836 201.964 56.1111 202.162 55.9662C202.359 55.814 202.496 55.6329 202.57 55.4228C202.652 55.2054 202.693 55.0061 202.693 54.825C202.693 54.6511 202.656 54.4591 202.581 54.2489C202.506 54.0315 202.373 53.8468 202.182 53.6946C201.992 53.5352 201.723 53.4555 201.375 53.4555H200.272V56.1836H201.334Z" fill="#29363D"/>
<path d="M211.246 56.8357C211.246 56.5459 211.311 56.285 211.44 56.0532C211.569 55.814 211.743 55.6256 211.961 55.488C212.179 55.3431 212.424 55.2706 212.697 55.2706C212.969 55.2706 213.214 55.3431 213.432 55.488C213.657 55.6256 213.834 55.814 213.963 56.0532C214.1 56.285 214.168 56.5459 214.168 56.8357C214.168 57.1256 214.1 57.39 213.963 57.6291C213.834 57.861 213.657 58.0458 213.432 58.1835C213.214 58.3211 212.969 58.39 212.697 58.39C212.424 58.39 212.179 58.3211 211.961 58.1835C211.743 58.0458 211.569 57.861 211.44 57.6291C211.311 57.39 211.246 57.1256 211.246 56.8357Z" fill="#29363D"/>
<path d="M225.422 53.8468C225.156 53.7019 224.873 53.5787 224.574 53.4772C224.281 53.3685 223.995 53.3142 223.716 53.3142C223.348 53.3142 223.055 53.4011 222.837 53.575C222.626 53.7417 222.52 53.9808 222.52 54.2924C222.52 54.5098 222.595 54.7018 222.745 54.8684C222.895 55.0279 223.086 55.1692 223.317 55.2923C223.549 55.4155 223.794 55.5278 224.053 55.6293C224.352 55.7452 224.642 55.8901 224.921 56.064C225.207 56.2379 225.442 56.477 225.626 56.7814C225.81 57.0785 225.902 57.477 225.902 57.977C225.902 58.39 225.803 58.7704 225.605 59.1182C225.408 59.4587 225.125 59.7305 224.758 59.9334C224.39 60.1362 223.944 60.2377 223.419 60.2377C222.956 60.2377 222.507 60.1616 222.071 60.0094C221.642 59.85 221.26 59.6471 220.927 59.4008L221.458 58.4117C221.703 58.6073 221.996 58.774 222.336 58.9117C222.684 59.0494 223.007 59.1182 223.307 59.1182C223.518 59.1182 223.726 59.082 223.93 59.0095C224.141 58.937 224.315 58.8175 224.451 58.6508C224.594 58.4842 224.666 58.2632 224.666 57.9878C224.666 57.7632 224.604 57.5712 224.482 57.4118C224.359 57.2524 224.199 57.1147 224.002 56.9988C223.811 56.8756 223.6 56.7669 223.368 56.6727C223.137 56.5785 222.898 56.4734 222.653 56.3575C222.415 56.2416 222.193 56.1003 221.989 55.9336C221.785 55.7597 221.618 55.5496 221.489 55.3032C221.359 55.0568 221.294 54.7525 221.294 54.3902C221.294 53.9555 221.39 53.5787 221.58 53.2599C221.771 52.9338 222.033 52.6802 222.367 52.499C222.708 52.3179 223.099 52.2164 223.542 52.1947C224.066 52.1947 224.512 52.2635 224.88 52.4012C225.255 52.5316 225.585 52.691 225.871 52.8794L225.422 53.8468Z" fill="#29363D"/>
<path d="M228.487 52.2382H229.682V60.1507H228.487V52.2382Z" fill="#29363D"/>
<path d="M239.288 60.4333L233.925 54.9011L233.956 60.1507H232.75V51.9665H232.812L238.154 57.5748L238.134 52.2382H239.319V60.4333H239.288Z" fill="#29363D"/>
<path d="M247.908 59.5312C247.799 59.6109 247.635 59.7087 247.418 59.8247C247.206 59.9406 246.951 60.042 246.651 60.129C246.352 60.2087 246.025 60.2449 245.671 60.2377C245.092 60.2304 244.571 60.1217 244.108 59.9116C243.645 59.6942 243.25 59.4044 242.923 59.0421C242.603 58.6726 242.357 58.2523 242.187 57.7813C242.017 57.3031 241.932 56.7959 241.932 56.2597C241.932 55.6583 242.02 55.1076 242.197 54.6076C242.381 54.1076 242.633 53.6765 242.953 53.3142C243.28 52.9447 243.665 52.6584 244.108 52.4556C244.557 52.2527 245.051 52.1512 245.589 52.1512C246.059 52.1512 246.478 52.2201 246.845 52.3577C247.22 52.4882 247.533 52.6367 247.785 52.8034L247.315 53.9881C247.125 53.8504 246.886 53.7127 246.6 53.575C246.314 53.4374 245.991 53.3685 245.63 53.3685C245.187 53.3685 244.778 53.4953 244.404 53.749C244.036 53.9953 243.736 54.3322 243.505 54.7598C243.28 55.18 243.168 55.6546 243.168 56.1836C243.168 56.7343 243.27 57.2234 243.474 57.6509C243.685 58.0784 243.978 58.4153 244.353 58.6617C244.734 58.9008 245.184 59.0204 245.701 59.0204C246.089 59.0204 246.427 58.9588 246.713 58.8356C246.999 58.7052 247.23 58.5603 247.407 58.4008L247.908 59.5312Z" fill="#29363D"/>
<path d="M250.516 52.2382H255.45V53.4555H251.711V55.5641H255.042V56.7814H251.711V58.9334H255.593V60.1507H250.516V52.2382Z" fill="#29363D"/>
<path d="M262.085 60.1507C262.508 59.6942 262.916 59.2522 263.311 58.8247C263.706 58.3972 264.06 57.9842 264.374 57.5857C264.687 57.1871 264.932 56.7995 265.109 56.4227C265.293 56.0459 265.385 55.68 265.385 55.3249C265.385 54.9119 265.269 54.6076 265.038 54.412C264.806 54.2091 264.53 54.1076 264.21 54.1076C263.951 54.1076 263.737 54.162 263.567 54.2707C263.403 54.3793 263.281 54.517 263.199 54.6837C263.117 54.8431 263.076 55.0025 263.076 55.1619C263.076 55.401 263.11 55.6148 263.178 55.8032C263.253 55.9843 263.352 56.1437 263.475 56.2814L262.749 56.9879C262.572 56.8864 262.423 56.727 262.3 56.5097C262.177 56.2923 262.082 56.064 262.014 55.8249C261.953 55.5858 261.922 55.3757 261.922 55.1945C261.922 54.8032 262.017 54.4337 262.208 54.0859C262.406 53.7308 262.688 53.4446 263.056 53.2272C263.424 53.0026 263.877 52.8903 264.415 52.8903C264.857 52.8903 265.242 52.999 265.569 53.2164C265.903 53.4338 266.161 53.72 266.345 54.075C266.529 54.4228 266.621 54.8032 266.621 55.2163C266.621 55.6583 266.526 56.0894 266.335 56.5097C266.144 56.9227 265.899 57.3284 265.6 57.727C265.3 58.1255 264.99 58.5276 264.67 58.9334H266.785V60.1507H262.085Z" fill="#29363D"/>
<path d="M271.469 60.1725C270.924 60.1797 270.437 60.042 270.008 59.7595C269.586 59.4769 269.249 59.0638 268.997 58.5204C268.752 57.977 268.629 57.314 268.629 56.5314C268.629 55.6764 268.748 54.9808 268.987 54.4446C269.225 53.9084 269.555 53.5171 269.978 53.2707C270.407 53.0171 270.904 52.8939 271.469 52.9012C272.007 52.8939 272.491 53.0316 272.92 53.3142C273.349 53.5968 273.686 54.0098 273.931 54.5533C274.176 55.0895 274.299 55.7488 274.299 56.5314C274.299 57.3357 274.173 58.0096 273.921 58.553C273.676 59.0964 273.339 59.5058 272.91 59.7812C272.487 60.0493 272.007 60.1797 271.469 60.1725ZM271.459 58.966C271.834 58.966 272.137 58.861 272.368 58.6508C272.607 58.4407 272.78 58.1509 272.889 57.7813C273.005 57.4045 273.063 56.977 273.063 56.4988C273.063 56.035 273.005 55.6256 272.889 55.2706C272.78 54.9083 272.607 54.6257 272.368 54.4228C272.13 54.2199 271.827 54.1185 271.459 54.1185C271.084 54.1185 270.781 54.2236 270.55 54.4337C270.318 54.6366 270.145 54.9192 270.029 55.2815C269.92 55.6438 269.865 56.0604 269.865 56.5314C269.865 56.9951 269.92 57.4118 270.029 57.7813C270.145 58.1509 270.318 58.4407 270.55 58.6508C270.781 58.861 271.084 58.966 271.459 58.966Z" fill="#29363D"/>
<path d="M278.876 60.1725C278.331 60.1797 277.844 60.042 277.415 59.7595C276.992 59.4769 276.655 59.0638 276.403 58.5204C276.158 57.977 276.036 57.314 276.036 56.5314C276.036 55.6764 276.155 54.9808 276.393 54.4446C276.631 53.9084 276.962 53.5171 277.384 53.2707C277.813 53.0171 278.31 52.8939 278.876 52.9012C279.414 52.8939 279.897 53.0316 280.326 53.3142C280.755 53.5968 281.092 54.0098 281.337 54.5533C281.583 55.0895 281.705 55.7488 281.705 56.5314C281.705 57.3357 281.579 58.0096 281.327 58.553C281.082 59.0964 280.745 59.5058 280.316 59.7812C279.894 60.0493 279.414 60.1797 278.876 60.1725ZM278.865 58.966C279.24 58.966 279.543 58.861 279.774 58.6508C280.013 58.4407 280.187 58.1509 280.295 57.7813C280.411 57.4045 280.469 56.977 280.469 56.4988C280.469 56.035 280.411 55.6256 280.295 55.2706C280.187 54.9083 280.013 54.6257 279.774 54.4228C279.536 54.2199 279.233 54.1185 278.865 54.1185C278.491 54.1185 278.188 54.2236 277.956 54.4337C277.725 54.6366 277.551 54.9192 277.435 55.2815C277.326 55.6438 277.272 56.0604 277.272 56.5314C277.272 56.9951 277.326 57.4118 277.435 57.7813C277.551 58.1509 277.725 58.4407 277.956 58.6508C278.188 58.861 278.491 58.966 278.865 58.966Z" fill="#29363D"/>
<path d="M283.616 52.9773H285.485V60.1507H284.29V54.1946H283.616V52.9773Z" fill="#29363D"/>
</svg>
